<svg width="342" height="145" viewBox="0 0 342 145" fill="none" xmlns="http://www.w3.org/2000/svg">
<g clip-path="url(#clip0_510_1546)">
<path d="M194.538 131.675C201.677 124.537 201.677 112.962 194.538 105.824C187.399 98.6851 175.824 98.6851 168.685 105.824C161.546 112.962 161.546 124.537 168.685 131.675C175.824 138.814 187.399 138.814 194.538 131.675Z" fill="#2F2E41"/>
<path d="M181.509 120.431C184.878 119.685 187.005 116.35 186.259 112.981C185.514 109.612 182.178 107.486 178.809 108.231C175.44 108.977 173.313 112.313 174.059 115.681C174.804 119.05 178.14 121.177 181.509 120.431Z" fill="white"/>
<path d="M178.078 114.751C179.201 114.503 179.91 113.391 179.662 112.268C179.413 111.145 178.301 110.436 177.178 110.685C176.055 110.933 175.346 112.045 175.595 113.168C175.843 114.291 176.955 115 178.078 114.751Z" fill="#3F3D56"/>
<path d="M181.147 106C173.415 105.986 167.987 104.675 168 98.0217C168.013 91.3688 174.291 85.9864 182.023 86C189.755 86.0136 196.013 91.4179 196 98.0708C195.987 104.724 188.879 106.013 181.147 106Z" fill="#6ABF69"/>
<path d="M210.248 121.77C208.07 129.139 201.708 134.298 195.072 138.68C194.146 139.292 193.219 139.89 192.292 140.473C192.285 140.476 192.279 140.482 192.272 140.484C192.228 140.512 192.183 140.54 192.142 140.569C191.95 140.689 191.759 140.809 191.569 140.928L191.673 140.974C191.673 140.974 191.776 141.027 191.664 140.982C191.63 140.969 191.595 140.956 191.562 140.943C187.707 139.427 183.784 137.799 180.829 134.959C177.764 132.011 175.973 127.385 177.633 123.511C177.851 123.004 178.127 122.522 178.454 122.074C178.589 121.886 178.734 121.706 178.885 121.53C179.8 120.441 180.997 119.609 182.351 119.12C183.706 118.631 185.169 118.502 186.592 118.748C188.014 118.993 189.343 119.603 190.444 120.516C191.544 121.428 192.375 122.61 192.851 123.939C193.339 119.513 189.596 115.806 185.994 113.071C182.39 110.337 178.295 107.36 177.599 102.959C177.21 100.51 178.083 98.137 179.674 96.232C179.723 96.1741 179.772 96.1163 179.823 96.06C181.76 93.8413 184.484 92.4165 187.451 92.0704C192.977 91.5105 198.344 94.3621 202.358 98.1079C208.819 104.135 212.725 113.392 210.248 121.77Z" fill="#E6E6E6"/>
<path d="M200.023 112.109C201.064 113.719 201.864 115.472 202.396 117.311C202.846 118.955 203.047 120.657 202.991 122.36C202.846 125.865 201.856 129.284 200.104 132.329C198.785 134.639 197.177 136.774 195.319 138.684C194.409 139.296 193.499 139.895 192.588 140.479C192.582 140.482 192.576 140.487 192.57 140.49C192.526 140.518 192.482 140.546 192.441 140.574C192.253 140.695 192.065 140.815 191.879 140.934C191.879 140.934 192.082 141.033 191.972 140.988C191.939 140.975 191.905 140.963 191.872 140.949C192.211 138.184 191.879 135.379 190.903 132.768C189.926 130.158 188.335 127.818 186.261 125.944C184.182 124.099 181.694 122.769 179 122.061C179.132 121.873 179.275 121.693 179.423 121.517C180.463 121.807 181.476 122.187 182.449 122.655C185.928 124.315 188.776 127.044 190.573 130.438C192.185 133.52 192.879 136.995 192.573 140.456C192.728 140.316 192.884 140.173 193.035 140.031C195.912 137.365 198.467 134.306 200.196 130.775C201.697 127.785 202.434 124.474 202.343 121.134C202.202 117.492 200.742 114.118 198.628 111.181C196.311 108.048 193.574 105.245 190.492 102.849C187.387 100.377 183.989 98.292 180.374 96.6405C180.293 96.6027 180.229 96.5351 180.196 96.4519C180.163 96.3687 180.164 96.2761 180.198 96.1932C180.222 96.1189 180.274 96.0571 180.344 96.0211C180.38 96.0057 180.419 95.9986 180.458 96.0002C180.497 96.0019 180.535 96.0123 180.57 96.0306C181.016 96.2348 181.459 96.4418 181.899 96.6578C185.561 98.4566 188.984 100.701 192.089 103.338C195.089 105.88 197.913 108.783 200.023 112.109Z" fill="white"/>
<path d="M30.5 142C32.9853 142 35 141.328 35 140.5C35 139.672 32.9853 139 30.5 139C28.0147 139 26 139.672 26 140.5C26 141.328 28.0147 142 30.5 142Z" fill="#2F2E41"/>
<path d="M42.5 142C44.9853 142 47 141.328 47 140.5C47 139.672 44.9853 139 42.5 139C40.0147 139 38 139.672 38 140.5C38 141.328 40.0147 142 42.5 142Z" fill="#2F2E41"/>
<path d="M57.1425 113.022C61.516 110.501 64.4198 107.344 63.6283 105.971C62.8368 104.599 58.6498 105.529 54.2763 108.05C49.9028 110.572 46.999 113.728 47.7905 115.101C48.582 116.474 52.7691 115.543 57.1425 113.022Z" fill="#2F2E41"/>
<path d="M53.0372 119.204C54.6545 109.238 47.8865 99.8489 37.9206 98.2317C27.9546 96.6146 18.5646 103.382 16.9473 113.347C15.3301 123.313 22.098 132.702 32.064 134.319C42.0299 135.936 51.4199 129.169 53.0372 119.204Z" fill="#2F2E41"/>
<path d="M32 131H26V141H32V131Z" fill="#2F2E41"/>
<path d="M44 131H38V141H44V131Z" fill="#2F2E41"/>
<path d="M35.5 118C39.0899 118 42 115.09 42 111.5C42 107.91 39.0899 105 35.5 105C31.9101 105 29 107.91 29 111.5C29 115.09 31.9101 118 35.5 118Z" fill="white"/>
<path d="M35.5 114C36.8807 114 38 112.881 38 111.5C38 110.119 36.8807 109 35.5 109C34.1193 109 33 110.119 33 111.5C33 112.881 34.1193 114 35.5 114Z" fill="#3F3D56"/>
<path d="M17.2707 99.2702C15.7923 92.6641 20.518 85.989 27.8257 84.3608C35.1334 82.7327 42.2559 86.7681 43.7342 93.3741C45.2125 99.9802 40.3694 102.417 33.0617 104.045C25.754 105.673 18.749 105.876 17.2707 99.2702Z" fill="#E6E6E6"/>
<path d="M22.6601 111.711C23.3392 110.279 20.1922 107.365 15.6311 105.201C11.0699 103.038 6.82186 102.445 6.14274 103.877C5.46362 105.309 8.61061 108.223 13.1718 110.386C17.7329 112.55 21.981 113.142 22.6601 111.711Z" fill="#2F2E41"/>
<path d="M26 123.059C26 124.72 30.6952 128 35.9051 128C41.1151 128 46 123.324 46 121.663C46 120.002 41.1151 121.985 35.9051 121.985C30.6952 121.985 26 121.398 26 123.059Z" fill="white"/>
<path d="M98.5 142C100.985 142 103 141.328 103 140.5C103 139.672 100.985 139 98.5 139C96.0147 139 94 139.672 94 140.5C94 141.328 96.0147 142 98.5 142Z" fill="#2F2E41"/>
<path d="M87.5 142C89.9853 142 92 141.328 92 140.5C92 139.672 89.9853 139 87.5 139C85.0147 139 83 139.672 83 140.5C83 141.328 85.0147 142 87.5 142Z" fill="#2F2E41"/>
<path d="M82.2357 115.101C83.0272 113.728 80.1234 110.571 75.75 108.05C71.3765 105.529 67.1894 104.598 66.398 105.971C65.6065 107.344 68.5103 110.501 72.8837 113.022C77.2572 115.543 81.4442 116.474 82.2357 115.101Z" fill="#2F2E41"/>
<path d="M95.5 135C105.717 135 114 126.717 114 116.5C114 106.283 105.717 98 95.5 98C85.2827 98 77 106.283 77 116.5C77 126.717 85.2827 135 95.5 135Z" fill="#2F2E41"/>
<path d="M103 131H97V141H103V131Z" fill="#2F2E41"/>
<path d="M92 131H87V141H92V131Z" fill="#2F2E41"/>
<path d="M90.5 118C94.0899 118 97 115.09 97 111.5C97 107.91 94.0899 105 90.5 105C86.9101 105 84 107.91 84 111.5C84 115.09 86.9101 118 90.5 118Z" fill="white"/>
<path d="M89.2456 112.266C90.0616 111.451 90.0669 110.133 89.2573 109.323C88.4478 108.513 87.13 108.517 86.3139 109.332C85.4979 110.147 85.4926 111.465 86.3022 112.275C87.1118 113.085 88.4296 113.081 89.2456 112.266Z" fill="#3F3D56"/>
<path d="M97.3434 104.045C89.765 102.417 84.7426 99.9802 86.2757 93.3741C87.8087 86.7681 95.195 82.7327 102.773 84.3608C110.352 85.989 115.252 92.6641 113.719 99.2702C112.186 105.876 104.922 105.673 97.3434 104.045Z" fill="#6ABF69"/>
<path d="M114.15 130.209C115.682 129.803 115.873 125.518 114.577 120.639C113.281 115.761 110.989 112.135 109.458 112.542C107.926 112.949 107.735 117.234 109.031 122.112C110.327 126.991 112.619 130.616 114.15 130.209Z" fill="#2F2E41"/>
<path d="M90.5617 121.985C87.1752 121.985 84 120.002 84 121.663C84 123.324 87.1752 128 90.5617 128C93.9482 128 97 124.72 97 123.059C97 121.398 93.9481 121.985 90.5617 121.985Z" fill="white"/>
<path d="M67.1644 86H65.5516C64.1068 85.9983 62.7216 85.4177 61.7 84.3855C60.6784 83.3533 60.1037 81.9538 60.1021 80.494V79.126C60.1021 75.7374 60.7375 72.9002 61.9909 70.6931C63.5097 68.1258 65.2817 65.7203 67.2797 63.5133C68.6062 62.1656 69.8097 60.6999 70.8758 59.1339C71.6407 57.9173 72.0356 56.5008 72.0116 55.0597C72.0116 51.6605 69.8197 50.0081 65.3107 50.0081C62.8094 50.0366 60.324 50.4136 57.9247 51.1282C56.9994 51.395 56.0254 51.4413 55.0794 51.2632C54.1334 51.0852 53.2412 50.6878 52.4731 50.1022C51.7049 49.5167 51.0817 48.759 50.6526 47.8888C50.2235 47.0186 50.0001 46.0596 50.0001 45.0873V42.3179C49.9948 41.1257 50.3319 39.9576 50.9705 38.9551C51.6091 37.9526 52.5218 37.1588 53.598 36.6699C57.8355 34.8428 62.4053 33.9344 67.012 34.0037C71.838 34.0037 76.1945 34.8227 79.9609 36.4377C83.7341 38.0565 86.7151 40.3391 88.8211 43.2223C90.9208 46.0851 92.0368 49.5628 91.9991 53.1257C91.9991 56.9518 90.9652 60.2841 88.9263 63.0303C86.9097 65.7485 84.0188 68.7243 80.334 71.8754C78.3925 73.5068 76.5527 75.2579 74.8252 77.1188C73.7094 78.3331 72.9209 79.8165 72.535 81.4269C72.32 82.7079 71.6624 83.8704 70.679 84.7077C69.6957 85.545 68.4504 86.0029 67.1644 86Z" fill="#6ABF69"/>
<path d="M66.6027 112H66.3839C63.6293 111.998 60.9881 110.891 59.041 108.922C57.0938 106.953 56 104.284 56 101.5C56 98.7164 57.0938 96.0467 59.041 94.0778C60.9881 92.1088 63.6293 91.0018 66.3839 91H66.6027C67.9678 90.9991 69.3196 91.27 70.5811 91.7973C71.8425 92.3246 72.9887 93.0979 73.9543 94.073C74.9199 95.0481 75.6858 96.2059 76.2084 97.4802C76.731 98.7546 77 100.121 77 101.5C77 102.879 76.731 104.245 76.2084 105.52C75.6858 106.794 74.9199 107.952 73.9543 108.927C72.9887 109.902 71.8425 110.675 70.5811 111.203C69.3196 111.73 67.9678 112.001 66.6027 112Z" fill="#6ABF69"/>
<path d="M177.843 130.216C182.89 130.117 186.956 128.753 186.925 127.169C186.894 125.584 182.778 124.38 177.73 124.479C172.683 124.577 168.617 125.942 168.648 127.526C168.679 129.11 172.796 130.315 177.843 130.216Z" fill="#2F2E41"/>
<path d="M172.917 63H162.083C161.531 62.9994 161.001 62.7797 160.611 62.3891C160.22 61.9985 160.001 61.469 160 60.9167V50.0833C160.001 49.531 160.22 49.0015 160.611 48.6109C161.001 48.2203 161.531 48.0006 162.083 48H172.917C173.469 48.0006 173.999 48.2203 174.389 48.6109C174.78 49.0015 174.999 49.531 175 50.0833V60.9167C174.999 61.469 174.78 61.9985 174.389 62.3891C173.999 62.7797 173.469 62.9994 172.917 63ZM162.083 48.8333C161.752 48.8337 161.434 48.9655 161.2 49.1998C160.966 49.4342 160.834 49.7519 160.833 50.0833V60.9167C160.834 61.2481 160.966 61.5658 161.2 61.8001C161.434 62.0345 161.752 62.1663 162.083 62.1667H172.917C173.248 62.1663 173.566 62.0345 173.8 61.8001C174.034 61.5658 174.166 61.2481 174.167 60.9167V50.0833C174.166 49.7519 174.034 49.4342 173.8 49.1998C173.566 48.9655 173.248 48.8337 172.917 48.8333H162.083Z" fill="#F2F2F2"/>
<path d="M177.917 56H167.083C166.531 55.9994 166.001 55.7797 165.611 55.3891C165.22 54.9985 165.001 54.469 165 53.9167V43.0833C165.001 42.531 165.22 42.0015 165.611 41.6109C166.001 41.2203 166.531 41.0006 167.083 41H177.917C178.469 41.0006 178.999 41.2203 179.389 41.6109C179.78 42.0015 179.999 42.531 180 43.0833V53.9167C179.999 54.469 179.78 54.9985 179.389 55.3891C178.999 55.7797 178.469 55.9994 177.917 56ZM167.083 41.8333C166.752 41.8337 166.434 41.9655 166.2 42.1998C165.966 42.4342 165.834 42.7519 165.833 43.0833V53.9167C165.834 54.2481 165.966 54.5658 166.2 54.8001C166.434 55.0345 166.752 55.1663 167.083 55.1667H177.917C178.248 55.1663 178.566 55.0345 178.8 54.8001C179.034 54.5658 179.166 54.2481 179.167 53.9167V43.0833C179.166 42.7519 179.034 42.4342 178.8 42.1998C178.566 41.9655 178.248 41.8337 177.917 41.8333H167.083Z" fill="#F2F2F2"/>
<path d="M90.9167 21H80.0833C79.531 20.9993 79.0014 20.765 78.6109 20.3484C78.2203 19.9318 78.0006 19.3669 78 18.7778V7.22222C78.0006 6.63306 78.2203 6.06823 78.6109 5.65162C79.0014 5.23502 79.531 5.00067 80.0833 5H90.9167C91.469 5.00067 91.9985 5.23502 92.3891 5.65162C92.7797 6.06823 92.9994 6.63306 93 7.22222V18.7778C92.9994 19.3669 92.7797 19.9318 92.3891 20.3484C91.9985 20.765 91.469 20.9993 90.9167 21ZM80.0833 5.88889C79.7519 5.88927 79.4342 6.02987 79.1998 6.27984C78.9655 6.5298 78.8337 6.86872 78.8333 7.22222V18.7778C78.8337 19.1313 78.9655 19.4702 79.1998 19.7202C79.4342 19.9701 79.7519 20.1107 80.0833 20.1111H90.9167C91.2481 20.1107 91.5658 19.9701 91.8001 19.7202C92.0345 19.4702 92.1663 19.1313 92.1667 18.7778V7.22222C92.1663 6.86872 92.0345 6.5298 91.8001 6.27984C91.5658 6.02987 91.2481 5.88927 90.9167 5.88889H80.0833Z" fill="#F2F2F2"/>
<path d="M83.9167 15H73.0833C72.531 14.9994 72.0015 14.7797 71.6109 14.3891C71.2203 13.9985 71.0006 13.469 71 12.9167V2.08333C71.0006 1.53099 71.2203 1.00146 71.6109 0.610898C72.0015 0.220334 72.531 0.000631896 73.0833 0H83.9167C84.469 0.000631896 84.9985 0.220334 85.3891 0.610898C85.7797 1.00146 85.9994 1.53099 86 2.08333V12.9167C85.9994 13.469 85.7797 13.9985 85.3891 14.3891C84.9985 14.7797 84.469 14.9994 83.9167 15ZM73.0833 0.833333C72.7519 0.833695 72.4342 0.965507 72.1998 1.19985C71.9655 1.43419 71.8337 1.75192 71.8333 2.08333V12.9167C71.8337 13.2481 71.9655 13.5658 72.1998 13.8001C72.4342 14.0345 72.7519 14.1663 73.0833 14.1667H83.9167C84.2481 14.1663 84.5658 14.0345 84.8002 13.8001C85.0345 13.5658 85.1663 13.2481 85.1667 12.9167V2.08333C85.1663 1.75192 85.0345 1.43419 84.8002 1.19985C84.5658 0.965507 84.2481 0.833695 83.9167 0.833333H73.0833Z" fill="#F2F2F2"/>
<path d="M136.5 80C137.881 80 139 78.8807 139 77.5C139 76.1193 137.881 75 136.5 75C135.119 75 134 76.1193 134 77.5C134 78.8807 135.119 80 136.5 80Z" fill="#F2F2F2"/>
<path d="M25.5 71C26.8807 71 28 69.6569 28 68C28 66.3431 26.8807 65 25.5 65C24.1193 65 23 66.3431 23 68C23 69.6569 24.1193 71 25.5 71Z" fill="#F2F2F2"/>
<path d="M211 94C212.657 94 214 92.8807 214 91.5C214 90.1193 212.657 89 211 89C209.343 89 208 90.1193 208 91.5C208 92.8807 209.343 94 211 94Z" fill="#F2F2F2"/>
<path d="M11.1977 143.44C10.9707 143.44 10.7436 143.43 10.5166 143.415V143.879L13.527 143.44H11.1977ZM54.2758 143.44V144.426H79.8691V143.44H54.2758ZM189.65 143.44L206.868 144.426H217.858L223.721 144.105L225.755 143.997L230.359 143.75L233.202 143.598L235.181 143.489H235.185L236.098 143.44H189.65ZM330.802 143.44H329.875L329.929 144.426H330.802C331.064 144.426 331.321 144.416 331.572 144.396L331.617 143.78L331.646 143.4C331.366 143.429 331.084 143.442 330.802 143.44ZM11.1977 143.44C10.9707 143.44 10.7436 143.43 10.5166 143.415V143.879L13.527 143.44H11.1977ZM54.2758 143.44V144.426H79.8691V143.44H54.2758ZM189.65 143.44L206.868 144.426H217.858L223.721 144.105L225.755 143.997L230.359 143.75L233.202 143.598L235.181 143.489H235.185L236.098 143.44H189.65ZM11.1977 143.44C10.9707 143.44 10.7436 143.43 10.5166 143.415V143.879L13.527 143.44H11.1977ZM19.6021 143.44V144.426H110.417V143.44H19.6021ZM189.65 143.44L206.868 144.426H217.858L223.721 144.105L225.755 143.997L230.359 143.75L233.202 143.598L235.181 143.489H235.185L236.098 143.44H189.65ZM330.802 143.44H292.131C292.077 143.765 292.028 144.095 291.983 144.426H330.802C331.064 144.426 331.321 144.416 331.572 144.396L331.617 143.78L331.646 143.4C331.366 143.429 331.084 143.442 330.802 143.44ZM11.1977 143.44C10.9707 143.44 10.7436 143.43 10.5166 143.415V143.879L13.527 143.44H11.1977ZM11.1977 143.44C10.9707 143.44 10.7436 143.43 10.5166 143.415V143.879L13.527 143.44H11.1977ZM11.1977 143.44C10.9707 143.44 10.7436 143.43 10.5166 143.415V143.879L13.527 143.44H11.1977ZM11.1977 143.44C10.9707 143.44 10.7436 143.43 10.5166 143.415V143.879L13.527 143.44H11.1977ZM11.1977 143.44C10.9707 143.44 10.7436 143.43 10.5166 143.415V143.879L13.527 143.44H11.1977ZM11.1977 143.44C10.9707 143.44 10.7436 143.43 10.5166 143.415V143.879L13.527 143.44H11.1977ZM11.1977 143.44C10.9707 143.44 10.7436 143.43 10.5166 143.415V143.879L13.527 143.44H11.1977ZM11.1977 143.44C10.9707 143.44 10.7436 143.43 10.5166 143.415C8.89263 143.309 7.31787 142.815 5.92428 141.975C4.53069 141.136 3.35887 139.975 2.50701 138.59H1.36208C2.12425 139.98 3.17204 141.193 4.43673 142.151C5.70142 143.108 7.15445 143.788 8.70052 144.145L10.5166 143.879L13.527 143.44H11.1977ZM330.802 0H11.1977C8.22896 0.00357162 5.38287 1.18307 3.28368 3.27977C1.18448 5.37647 0.00357619 8.21917 3.2506e-07 11.1844V133.241C-0.000610571 135.774 0.859851 138.233 2.44048 140.213C4.02112 142.194 6.22826 143.58 8.70052 144.145C9.29765 144.281 9.90514 144.367 10.5166 144.401C10.7387 144.421 10.9707 144.426 11.1977 144.426H330.802C331.064 144.426 331.321 144.416 331.572 144.396C332.021 144.369 332.468 144.311 332.91 144.224C333.235 144.164 333.561 144.086 333.877 143.997C334.357 143.861 334.827 143.691 335.283 143.489C336.313 143.042 337.266 142.438 338.111 141.7C338.18 141.646 338.249 141.587 338.318 141.522C339.25 140.682 340.032 139.69 340.633 138.59C341.528 136.949 341.998 135.11 342 133.241V11.1844C341.996 8.21917 340.816 5.37647 338.716 3.27977C336.617 1.18307 333.771 0.00357162 330.802 0ZM341.013 133.241C341.013 133.982 340.932 134.721 340.771 135.445C340.582 136.315 340.277 137.155 339.863 137.944C339.479 138.685 339.003 139.376 338.447 139.999V140.004L338.442 140.009C338.402 140.054 338.358 140.103 338.314 140.147C337.095 141.477 335.543 142.457 333.818 142.986C333.66 143.036 333.502 143.08 333.344 143.124C333.275 143.144 333.206 143.159 333.132 143.174C332.643 143.288 332.147 143.363 331.646 143.4C331.366 143.429 331.084 143.442 330.802 143.44H11.1977C10.9707 143.44 10.7436 143.43 10.5166 143.415C7.93305 143.241 5.51194 142.094 3.74287 140.206C1.97381 138.317 0.988789 135.828 0.986991 133.241V77.7237C0.986991 77.3836 0.986988 77.0484 0.991923 76.7132C1.24918 56.5348 9.45748 37.2705 23.8378 23.0954C38.2182 8.92034 57.612 0.976609 77.8161 0.985841H330.802C332.143 0.985574 333.471 1.24918 334.71 1.76161C335.949 2.27404 337.075 3.02525 338.023 3.97232C338.971 4.9194 339.723 6.04378 340.236 7.28124C340.749 8.51871 341.013 9.84499 341.013 11.1844L341.013 133.241ZM11.1977 143.44C10.9707 143.44 10.7436 143.43 10.5166 143.415V143.879L13.527 143.44H11.1977ZM11.1977 143.44C10.9707 143.44 10.7436 143.43 10.5166 143.415V143.879L13.527 143.44H11.1977ZM11.1977 143.44C10.9707 143.44 10.7436 143.43 10.5166 143.415V143.879L13.527 143.44H11.1977ZM11.1977 143.44C10.9707 143.44 10.7436 143.43 10.5166 143.415V143.879L13.527 143.44H11.1977ZM11.1977 143.44C10.9707 143.44 10.7436 143.43 10.5166 143.415V143.879L13.527 143.44H11.1977ZM11.1977 143.44C10.9707 143.44 10.7436 143.43 10.5166 143.415V143.879L13.527 143.44H11.1977ZM11.1977 143.44C10.9707 143.44 10.7436 143.43 10.5166 143.415V143.879L13.527 143.44H11.1977ZM11.1977 143.44C10.9707 143.44 10.7436 143.43 10.5166 143.415V143.879L13.527 143.44H11.1977ZM189.65 143.44L206.868 144.426H217.858L223.721 144.105L225.755 143.997L230.359 143.75L233.202 143.598L235.181 143.489H235.185L236.098 143.44H189.65ZM54.2758 143.44V144.426H79.8691V143.44H54.2758ZM11.1977 143.44C10.9707 143.44 10.7436 143.43 10.5166 143.415V143.879L13.527 143.44H11.1977ZM189.65 143.44L206.868 144.426H217.858L223.721 144.105L225.755 143.997L230.359 143.75L233.202 143.598L235.181 143.489H235.185L236.098 143.44H189.65ZM54.2758 143.44V144.426H79.8691V143.44H54.2758ZM11.1977 143.44C10.9707 143.44 10.7436 143.43 10.5166 143.415V143.879L13.527 143.44H11.1977ZM330.802 143.44H329.875L329.929 144.426H330.802C331.064 144.426 331.321 144.416 331.572 144.396L331.617 143.78L331.646 143.4C331.366 143.429 331.084 143.442 330.802 143.44ZM189.65 143.44L206.868 144.426H217.858L223.721 144.105L225.755 143.997L230.359 143.75L233.202 143.598L235.181 143.489H235.185L236.098 143.44H189.65ZM54.2758 143.44V144.426H79.8691V143.44H54.2758Z" fill="#3F3D56"/>
</g>
<defs>
<clipPath id="clip0_510_1546">
<rect width="342" height="145" fill="white"/>
</clipPath>
</defs>
</svg>
