<svg width="342" height="145" viewBox="0 0 342 145" fill="none" xmlns="http://www.w3.org/2000/svg">
<g clip-path="url(#clip0_510_1627)">
<g clip-path="url(#clip1_510_1627)">
<path d="M293 76.5336C293 105.661 274.525 130.478 248.648 139.921C244.712 141.361 240.648 142.426 236.512 143.104C225.132 144.969 213.464 143.911 202.606 140.028C176.566 130.662 157.956 105.761 157.968 76.5193C157.968 39.2739 188.197 9.06745 225.484 9.06745C239.576 9.04697 253.318 13.4524 264.768 21.6611C281.862 33.8991 293 53.9161 293 76.5336Z" fill="#E5E5E5"/>
<path d="M248.648 139.922C244.712 141.361 240.648 142.427 236.512 143.105C225.132 144.97 213.464 143.911 202.606 140.028L205.724 127.526L205.912 126.776L212.275 126.8L244.241 126.915L244.65 128.123L248.648 139.922Z" fill="#2F2E41"/>
<path d="M136.647 0H78V66.3121H136.647V0Z" fill="#E6E6E6"/>
<path d="M135.499 1.40283H79.0457V64.9094H135.499V1.40283Z" fill="white"/>
<path d="M107.324 62.6514C109.071 62.6514 110.488 61.2357 110.488 59.4893C110.488 57.7429 109.071 56.3271 107.324 56.3271C105.576 56.3271 104.159 57.7429 104.159 59.4893C104.159 61.2357 105.576 62.6514 107.324 62.6514Z" fill="#E6E6E6"/>
<path d="M106.789 23.8828H88.6135V25.7408H106.789V23.8828Z" fill="#E6E6E6"/>
<path d="M116.045 29.4502H88.6135V31.3082H116.045V29.4502Z" fill="#6ABF69"/>
<path d="M113.353 35.0532H88.6135V36.9112H113.353V35.0532Z" fill="#E6E6E6"/>
<path d="M126.816 40.5073H88.6135V42.3653H126.816V40.5073Z" fill="#6ABF69"/>
<path d="M120.145 45.7021H89.0106V47.5601H120.145V45.7021Z" fill="#E6E6E6"/>
<path d="M161.394 107.903C161.617 108.132 161.822 108.378 162.006 108.639L190.672 107.938L194.016 101.832L203.898 105.67L199.028 117.055C198.635 117.975 197.954 118.742 197.087 119.242C196.22 119.742 195.214 119.947 194.22 119.827L161.833 115.918C161.069 116.884 160.029 117.595 158.851 117.957C157.672 118.318 156.412 118.312 155.237 117.94C154.062 117.568 153.028 116.847 152.273 115.874C151.518 114.9 151.078 113.72 151.01 112.491C150.943 111.261 151.252 110.04 151.896 108.99C152.54 107.94 153.488 107.11 154.615 106.612C155.743 106.114 156.995 105.97 158.206 106.201C159.416 106.431 160.528 107.024 161.393 107.901L161.394 107.903Z" fill="#9F616A"/>
<path d="M199.977 73.035L213.392 68.6417L217.332 63.2422L236.505 64.376L239.32 70.677L249.544 75.5045L247.973 104.663L245.285 131.951C231.463 124.799 205.668 130.252 205.442 130.341L199.977 73.035Z" fill="#6ABF69"/>
<path d="M202.844 112.503L189.199 107.048L189.257 106.805C189.316 106.56 195.123 82.3092 195.895 78.4121C196.698 74.3521 199.633 73.2295 199.757 73.1839L199.848 73.1504L205.248 74.7929L207.62 93.4138L202.844 112.503Z" fill="#6ABF69"/>
<path d="M232.307 130.752C232.627 130.744 232.947 130.762 233.264 130.805L252.239 109.323L250.032 102.723L259.568 98.0918L264.612 109.4C265.02 110.314 265.12 111.335 264.897 112.31C264.674 113.285 264.141 114.162 263.378 114.808L238.489 135.881C238.678 137.098 238.493 138.343 237.957 139.452C237.42 140.561 236.559 141.481 235.487 142.089C234.415 142.696 233.184 142.964 231.956 142.855C230.728 142.746 229.563 142.267 228.615 141.48C227.667 140.693 226.98 139.637 226.648 138.451C226.315 137.265 226.352 136.006 226.752 134.842C227.153 133.677 227.899 132.662 228.892 131.931C229.884 131.201 231.075 130.789 232.307 130.752Z" fill="#9F616A"/>
<path d="M250.725 111.415L242.809 92.8091L245.897 79.8493L249.223 75.6498C249.467 75.5457 249.729 75.4932 249.994 75.4957C250.259 75.4982 250.521 75.5555 250.762 75.6641C251.99 76.1574 253.033 77.6697 253.868 80.1586L261.286 101.273L250.725 111.415Z" fill="#6ABF69"/>
<path d="M209.657 56.3481V42.3212C209.649 39.8529 210.127 37.4072 211.065 35.1236C212.002 32.84 213.381 30.7634 215.122 29.0122C216.863 27.2611 218.932 25.8697 221.211 24.9176C223.49 23.9654 225.934 23.4712 228.404 23.463C230.874 23.4548 233.322 23.9329 235.607 24.8699C237.893 25.807 239.971 27.1846 241.723 28.9242C243.476 30.6638 244.868 32.7312 245.821 35.0085C246.774 37.2858 247.268 39.7284 247.276 42.1967C247.277 42.2382 247.277 42.2797 247.276 42.3212V56.3481C247.276 57.0175 247.009 57.6592 246.536 58.1326C246.062 58.6059 245.42 58.8722 244.75 58.8729H212.184C211.514 58.8722 210.871 58.6059 210.398 58.1326C209.924 57.6592 209.658 57.0175 209.657 56.3481Z" fill="#2F2E41"/>
<path d="M224.601 58.5463C232.218 58.5463 238.392 52.3766 238.392 44.7658C238.392 37.1551 232.218 30.9854 224.601 30.9854C216.985 30.9854 210.811 37.1551 210.811 44.7658C210.811 52.3766 216.985 58.5463 224.601 58.5463Z" fill="#9F616A"/>
<path d="M205.207 43.4432C205.211 39.5012 206.78 35.7219 209.57 32.9345C212.359 30.1471 216.141 28.5791 220.086 28.5747H222.894C226.839 28.5791 230.621 30.1471 233.41 32.9345C236.2 35.7219 237.769 39.5012 237.773 43.4432V43.7237H231.84L229.816 38.0607L229.412 43.7237H226.346L225.325 40.8668L225.12 43.7237H205.207V43.4432Z" fill="#2F2E41"/>
<path d="M223.244 60.4503C222.966 60.0734 222.799 59.6256 222.764 59.1583C222.729 58.6911 222.827 58.2235 223.046 57.8093C226.021 52.1548 230.187 41.7064 224.658 35.2627L224.262 34.8003H240.313V58.8816L225.732 61.4525C225.584 61.4786 225.434 61.4918 225.284 61.492C224.886 61.492 224.494 61.3976 224.14 61.2166C223.785 61.0357 223.479 60.7733 223.245 60.4509L223.244 60.4503Z" fill="#2F2E41"/>
<path d="M107.273 5.16455C105.942 5.16448 104.641 5.55879 103.534 6.29761C102.427 7.03643 101.565 8.08658 101.055 9.31526C100.546 10.5439 100.413 11.896 100.672 13.2004C100.932 14.5048 101.573 15.703 102.514 16.6434C103.455 17.5839 104.654 18.2244 105.959 18.4839C107.264 18.7434 108.618 18.6103 109.847 18.1015C111.077 17.5926 112.128 16.7308 112.867 15.625C113.607 14.5192 114.002 13.2192 114.002 11.8892V11.8889C114.002 11.0058 113.828 10.1314 113.489 9.31558C113.151 8.49975 112.656 7.75847 112.031 7.13406C111.406 6.50965 110.664 6.01434 109.847 5.67641C109.031 5.33848 108.156 5.16455 107.272 5.16455H107.273ZM107.273 7.18166C107.672 7.18166 108.062 7.29996 108.394 7.52161C108.726 7.74325 108.985 8.05828 109.138 8.42686C109.29 8.79543 109.33 9.20101 109.252 9.59229C109.175 9.98357 108.982 10.343 108.7 10.6251C108.418 10.9072 108.058 11.0993 107.666 11.1771C107.275 11.255 106.869 11.215 106.5 11.0624C106.131 10.9097 105.816 10.6511 105.594 10.3194C105.372 9.98772 105.254 9.59774 105.254 9.19879C105.254 8.66382 105.467 8.15075 105.845 7.77247C106.224 7.39419 106.737 7.18167 107.273 7.18166ZM107.273 16.893C106.475 16.8893 105.691 16.6913 104.987 16.3161C104.283 15.9409 103.682 15.3998 103.235 14.7398C103.268 13.395 105.927 12.6547 107.273 12.6547C108.619 12.6547 111.278 13.395 111.31 14.7398C110.863 15.3993 110.261 15.94 109.558 16.3152C108.854 16.6903 108.07 16.8886 107.273 16.893Z" fill="#6ABF69"/>
<path d="M107.351 60.7013C110.123 55.6247 116.764 52.4099 122.197 55.3076C124.642 56.6118 126.586 58.9187 127.203 61.6454C127.919 64.8128 126.41 67.8331 124.853 70.4941C124.007 71.9385 123.081 73.3534 122.381 74.8769C121.657 76.4546 121.139 78.278 121.684 79.9943C122.175 81.5405 123.407 82.6652 124.755 83.4917C126.243 84.3695 127.826 85.0759 129.473 85.5975C132.864 86.7244 136.44 87.1868 140.006 86.9593C141.779 86.839 143.536 86.5551 145.256 86.1113C147.086 85.6451 148.882 85.0543 150.714 84.5984C153.774 83.8389 157.263 83.4613 160.165 84.9868C162.984 86.4695 164.245 89.5702 164.635 92.5868C165.356 98.1571 163.146 103.937 159.155 107.838C157.24 109.71 154.831 111.256 152.207 111.888C149.917 112.44 146.977 112.405 145.155 110.695C143.122 108.786 143.6 105.725 145.215 103.711C147.277 101.141 150.769 100.524 153.885 100.462C157.43 100.39 160.971 100.918 164.514 100.59C166.243 100.455 167.94 100.046 169.54 99.3784C170.947 98.76 172.231 97.8922 173.328 96.8169C175.515 94.6936 176.991 91.8649 177.724 88.9238C178.607 85.3869 178.415 81.6698 177.729 78.1171C177.364 76.2853 176.893 74.4759 176.32 72.698C176.083 71.9477 174.898 72.2686 175.136 73.0241C177.247 79.7143 178.425 87.4502 174.345 93.6618C172.657 96.2959 170.027 98.1876 166.992 98.9513C163.461 99.8282 159.756 99.3948 156.167 99.2643C152.754 99.1402 149.006 99.2741 146.08 101.261C143.68 102.89 142.001 105.989 142.727 108.914C143.426 111.736 146.14 113.167 148.854 113.387C151.701 113.619 154.503 112.664 156.894 111.171C161.868 108.065 165.176 102.602 165.868 96.8102C166.229 93.7924 165.862 90.5418 164.492 87.8026C163.77 86.3199 162.647 85.069 161.25 84.192C159.857 83.3384 158.247 82.9183 156.631 82.7697C152.959 82.4317 149.431 83.6915 145.947 84.6552C144.168 85.1711 142.344 85.519 140.5 85.6944C138.709 85.8426 136.909 85.8133 135.124 85.6069C133.354 85.3982 131.609 85.0112 129.916 84.4518C128.257 83.9394 126.669 83.2219 125.188 82.316C123.882 81.4813 122.752 80.2857 122.688 78.6565C122.618 76.8899 123.51 75.2374 124.358 73.748C126.033 70.8059 128.102 67.9281 128.538 64.4839C128.921 61.471 127.708 58.5015 125.613 56.3526C124.563 55.2618 123.299 54.3995 121.9 53.8196C120.501 53.2396 118.997 52.9546 117.483 52.9823C114.374 53.0712 111.398 54.422 109.112 56.4965C107.978 57.526 107.024 58.7372 106.288 60.0804C105.91 60.7736 106.969 61.3933 107.348 60.6994L107.351 60.7013Z" fill="#3F3D56"/>
</g>
<path d="M11.1977 143.44C10.9707 143.44 10.7436 143.43 10.5166 143.415V143.879L13.527 143.44H11.1977ZM54.2758 143.44V144.426H79.8691V143.44H54.2758ZM189.65 143.44L206.868 144.426H217.858L223.721 144.105L225.755 143.997L230.359 143.75L233.202 143.598L235.181 143.489H235.185L236.098 143.44H189.65ZM330.802 143.44H329.875L329.929 144.426H330.802C331.064 144.426 331.321 144.416 331.572 144.396L331.617 143.78L331.646 143.4C331.366 143.429 331.084 143.442 330.802 143.44ZM11.1977 143.44C10.9707 143.44 10.7436 143.43 10.5166 143.415V143.879L13.527 143.44H11.1977ZM54.2758 143.44V144.426H79.8691V143.44H54.2758ZM189.65 143.44L206.868 144.426H217.858L223.721 144.105L225.755 143.997L230.359 143.75L233.202 143.598L235.181 143.489H235.185L236.098 143.44H189.65ZM11.1977 143.44C10.9707 143.44 10.7436 143.43 10.5166 143.415V143.879L13.527 143.44H11.1977ZM19.6021 143.44V144.426H110.417V143.44H19.6021ZM189.65 143.44L206.868 144.426H217.858L223.721 144.105L225.755 143.997L230.359 143.75L233.202 143.598L235.181 143.489H235.185L236.098 143.44H189.65ZM330.802 143.44H292.131C292.077 143.765 292.028 144.095 291.983 144.426H330.802C331.064 144.426 331.321 144.416 331.572 144.396L331.617 143.78L331.646 143.4C331.366 143.429 331.084 143.442 330.802 143.44ZM11.1977 143.44C10.9707 143.44 10.7436 143.43 10.5166 143.415V143.879L13.527 143.44H11.1977ZM11.1977 143.44C10.9707 143.44 10.7436 143.43 10.5166 143.415V143.879L13.527 143.44H11.1977ZM11.1977 143.44C10.9707 143.44 10.7436 143.43 10.5166 143.415V143.879L13.527 143.44H11.1977ZM11.1977 143.44C10.9707 143.44 10.7436 143.43 10.5166 143.415V143.879L13.527 143.44H11.1977ZM11.1977 143.44C10.9707 143.44 10.7436 143.43 10.5166 143.415V143.879L13.527 143.44H11.1977ZM11.1977 143.44C10.9707 143.44 10.7436 143.43 10.5166 143.415V143.879L13.527 143.44H11.1977ZM11.1977 143.44C10.9707 143.44 10.7436 143.43 10.5166 143.415V143.879L13.527 143.44H11.1977ZM11.1977 143.44C10.9707 143.44 10.7436 143.43 10.5166 143.415C8.89263 143.309 7.31787 142.815 5.92428 141.975C4.53069 141.136 3.35887 139.975 2.50701 138.59H1.36208C2.12425 139.98 3.17204 141.193 4.43673 142.151C5.70142 143.108 7.15445 143.788 8.70052 144.145L10.5166 143.879L13.527 143.44H11.1977ZM330.802 0H11.1977C8.22896 0.00357162 5.38287 1.18307 3.28368 3.27977C1.18448 5.37647 0.00357619 8.21917 3.2506e-07 11.1844V133.241C-0.000610571 135.774 0.859851 138.233 2.44048 140.213C4.02112 142.194 6.22826 143.58 8.70052 144.145C9.29765 144.281 9.90514 144.367 10.5166 144.401C10.7387 144.421 10.9707 144.426 11.1977 144.426H330.802C331.064 144.426 331.321 144.416 331.572 144.396C332.021 144.369 332.468 144.311 332.91 144.224C333.235 144.164 333.561 144.086 333.877 143.997C334.357 143.861 334.827 143.691 335.283 143.489C336.313 143.042 337.266 142.438 338.111 141.7C338.18 141.646 338.249 141.587 338.318 141.522C339.25 140.682 340.032 139.69 340.633 138.59C341.528 136.949 341.998 135.11 342 133.241V11.1844C341.996 8.21917 340.816 5.37647 338.716 3.27977C336.617 1.18307 333.771 0.00357162 330.802 0ZM341.013 133.241C341.013 133.982 340.932 134.721 340.771 135.445C340.582 136.315 340.277 137.155 339.863 137.944C339.479 138.685 339.003 139.376 338.447 139.999V140.004L338.442 140.009C338.402 140.054 338.358 140.103 338.314 140.147C337.095 141.477 335.543 142.457 333.818 142.986C333.66 143.036 333.502 143.08 333.344 143.124C333.275 143.144 333.206 143.159 333.132 143.174C332.643 143.288 332.147 143.363 331.646 143.4C331.366 143.429 331.084 143.442 330.802 143.44H11.1977C10.9707 143.44 10.7436 143.43 10.5166 143.415C7.93305 143.241 5.51194 142.094 3.74287 140.206C1.97381 138.317 0.988789 135.828 0.986991 133.241V77.7237C0.986991 77.3836 0.986988 77.0484 0.991923 76.7132C1.24918 56.5348 9.45748 37.2705 23.8378 23.0954C38.2182 8.92034 57.612 0.976609 77.8161 0.985841H330.802C332.143 0.985574 333.471 1.24918 334.71 1.76161C335.949 2.27404 337.075 3.02525 338.023 3.97232C338.971 4.9194 339.723 6.04378 340.236 7.28124C340.749 8.51871 341.013 9.84499 341.013 11.1844L341.013 133.241ZM11.1977 143.44C10.9707 143.44 10.7436 143.43 10.5166 143.415V143.879L13.527 143.44H11.1977ZM11.1977 143.44C10.9707 143.44 10.7436 143.43 10.5166 143.415V143.879L13.527 143.44H11.1977ZM11.1977 143.44C10.9707 143.44 10.7436 143.43 10.5166 143.415V143.879L13.527 143.44H11.1977ZM11.1977 143.44C10.9707 143.44 10.7436 143.43 10.5166 143.415V143.879L13.527 143.44H11.1977ZM11.1977 143.44C10.9707 143.44 10.7436 143.43 10.5166 143.415V143.879L13.527 143.44H11.1977ZM11.1977 143.44C10.9707 143.44 10.7436 143.43 10.5166 143.415V143.879L13.527 143.44H11.1977ZM11.1977 143.44C10.9707 143.44 10.7436 143.43 10.5166 143.415V143.879L13.527 143.44H11.1977ZM11.1977 143.44C10.9707 143.44 10.7436 143.43 10.5166 143.415V143.879L13.527 143.44H11.1977ZM189.65 143.44L206.868 144.426H217.858L223.721 144.105L225.755 143.997L230.359 143.75L233.202 143.598L235.181 143.489H235.185L236.098 143.44H189.65ZM54.2758 143.44V144.426H79.8691V143.44H54.2758ZM11.1977 143.44C10.9707 143.44 10.7436 143.43 10.5166 143.415V143.879L13.527 143.44H11.1977ZM189.65 143.44L206.868 144.426H217.858L223.721 144.105L225.755 143.997L230.359 143.75L233.202 143.598L235.181 143.489H235.185L236.098 143.44H189.65ZM54.2758 143.44V144.426H79.8691V143.44H54.2758ZM11.1977 143.44C10.9707 143.44 10.7436 143.43 10.5166 143.415V143.879L13.527 143.44H11.1977ZM330.802 143.44H329.875L329.929 144.426H330.802C331.064 144.426 331.321 144.416 331.572 144.396L331.617 143.78L331.646 143.4C331.366 143.429 331.084 143.442 330.802 143.44ZM189.65 143.44L206.868 144.426H217.858L223.721 144.105L225.755 143.997L230.359 143.75L233.202 143.598L235.181 143.489H235.185L236.098 143.44H189.65ZM54.2758 143.44V144.426H79.8691V143.44H54.2758Z" fill="#3F3D56"/>
</g>
<defs>
<clipPath id="clip0_510_1627">
<rect width="342" height="145" fill="white"/>
</clipPath>
<clipPath id="clip1_510_1627">
<rect width="215" height="144" fill="white" transform="translate(78)"/>
</clipPath>
</defs>
</svg>
