<svg width="343" height="135" viewBox="0 0 343 135" fill="none" xmlns="http://www.w3.org/2000/svg">
<g clip-path="url(#clip0_510_1163)">
<path d="M76.5884 102.414C75.6935 102.415 74.8355 102.754 74.2027 103.358C73.5699 103.961 73.214 104.779 73.213 105.632V113.161C73.214 114.015 73.5699 114.833 74.2027 115.436C74.8355 116.039 75.6935 116.379 76.5884 116.38H80.8697C81.7646 116.379 82.6226 116.039 83.2554 115.436C83.8882 114.833 84.2441 114.015 84.2451 113.161V105.632C84.2441 104.779 83.8882 103.961 83.2554 103.358C82.6226 102.754 81.7646 102.415 80.8697 102.414H76.5884Z" fill="#3F3D56"/>
<path d="M159.688 116.38H155.229C154.225 116.379 153.262 116.025 152.552 115.398C151.842 114.77 151.442 113.919 151.441 113.031V105.763C151.442 104.875 151.842 104.024 152.552 103.396C153.262 102.768 154.225 102.415 155.229 102.414H159.688C160.692 102.415 161.655 102.768 162.365 103.396C163.076 104.024 163.475 104.875 163.476 105.763V113.031C163.475 113.919 163.076 114.77 162.365 115.398C161.655 116.025 160.692 116.379 159.688 116.38Z" fill="#3F3D56"/>
<path d="M156.15 110.793H79.5363C76.0496 110.793 73.213 108.823 73.213 106.402V92.2857L77.0157 88.4482H159.41L162.473 92.2938V106.402C162.473 108.823 159.637 110.793 156.15 110.793Z" fill="#CCCCCC"/>
<path d="M159.628 95.8968H77.0608L76.2217 83.8194L76.7557 82.5835L79.8593 75.4141H156.271L160.467 83.5554L159.628 95.8968Z" fill="#CCCCCC"/>
<path d="M159.464 83.7872L158.872 92.1726H141.412V85.9433L158.968 82.8623L159.464 83.7872Z" fill="white"/>
<path d="M95.2773 85.9111V92.1726H76.8532L76.2217 83.9845L76.7594 82.8623L95.2773 85.9111Z" fill="white"/>
<path d="M155.453 77.2761H80.2334L88.2561 52.426C88.5833 51.3997 89.2572 50.4985 90.178 49.8554C91.0989 49.2124 92.218 48.8617 93.3699 48.8552L143.185 48.4143C144.389 48.4035 145.562 48.7672 146.517 49.4477C147.472 50.1281 148.155 51.0861 148.457 52.1689L155.453 77.2761Z" fill="#CCCCCC"/>
<path d="M149.914 75.414L85.7603 74.7053C85.6792 74.7044 85.5994 74.6858 85.5275 74.6509C85.4555 74.6161 85.3933 74.566 85.3459 74.5047C85.2984 74.4434 85.2671 74.3725 85.2544 74.2979C85.2417 74.2233 85.248 74.1469 85.2728 74.0749L91.4229 56.1979C91.4564 56.1004 91.5223 56.0154 91.611 55.9551C91.6997 55.8948 91.8067 55.8623 91.9165 55.8623H143.516C143.626 55.8623 143.733 55.8948 143.822 55.955C143.91 56.0153 143.976 56.1003 144.01 56.1977L150.413 74.7835C150.438 74.8564 150.445 74.9338 150.431 75.0093C150.418 75.0849 150.386 75.1564 150.337 75.2179C150.288 75.2795 150.224 75.3294 150.151 75.3635C150.077 75.3976 149.996 75.4149 149.914 75.414Z" fill="white"/>
<path d="M80.2334 77.2757H69.2013V74.7586C69.2021 73.9449 69.5139 73.1648 70.0682 72.5894C70.6225 72.014 71.3741 71.6904 72.158 71.6895H80.2334V77.2757Z" fill="#CCCCCC"/>
<path d="M166.485 77.2757H155.453V71.6895H163.528C164.312 71.6904 165.064 72.014 165.618 72.5894C166.172 73.1648 166.484 73.9449 166.485 74.7586V77.2757Z" fill="#CCCCCC"/>
<path d="M67.9806 112.897L13.038 131.289L13.2712 131.894L68.2138 113.502L67.9806 112.897Z" fill="#3F3D56"/>
<path d="M167.574 112.898L167.34 113.503L222.285 131.891L222.518 131.286L167.574 112.898Z" fill="#3F3D56"/>
<path d="M121.353 126.621H117.342V122.587H121.353V126.621ZM121.353 118.552H117.342V114.518H121.353V118.552Z" fill="#E6E6E6"/>
<path d="M265.774 129.413H261.697L259.757 116.379H265.774V129.413Z" fill="#FFB8B8"/>
<path d="M266.777 132.207H254.742V132.06C254.744 130.865 255.238 129.719 256.116 128.874C256.994 128.029 258.185 127.553 259.427 127.552H266.777L266.777 132.207Z" fill="#2F2E41"/>
<path d="M311.909 123.002L309.001 124.759L300.877 114.317L305.169 111.725L311.909 123.002Z" fill="#FFB8B8"/>
<path d="M304.629 130.345L304.551 130.227C303.914 129.268 303.725 128.121 304.024 127.036C304.324 125.951 305.088 125.018 306.149 124.441L312.433 121.034L314.918 124.766L304.629 130.345Z" fill="#2F2E41"/>
<path d="M266.782 126.621L266.721 126.621C264.983 126.615 263.248 126.521 261.521 126.338C260.863 126.277 260.15 126.21 259.29 126.143L259.26 126.138C258.673 125.973 258.657 120.776 258.906 102.986C259.033 93.8746 259.178 83.5472 259.006 76.9702L259.004 76.9056L259.056 76.863C265.426 71.6302 273.607 69.6687 282.091 71.3398L282.154 71.3522L282.186 71.4045C285.696 77.0129 290.995 85.0916 296.12 92.9043C307.883 110.839 311.248 116.114 310.879 116.511L310.835 116.544C310.031 116.923 309.428 117.215 308.916 117.464C307.199 118.295 306.488 118.639 302.669 120.124L302.575 120.161L302.506 120.09C290.57 107.737 280.637 93.9376 274.493 81.1812C273.775 85.5362 272.904 91.2228 271.983 97.2314C269.335 114.509 267.546 125.887 266.825 126.579L266.782 126.621Z" fill="#2F2E41"/>
<path d="M285.51 21.4143C286.734 16.7128 287.771 11.41 285.463 7.07981C283.861 4.07534 277.936 3.06357 274.54 4.14596C271.144 5.22835 268.688 8.16496 267.609 11.3668C266.529 14.5686 266.654 18.0188 267.125 21.3474C273.371 21.2357 279.617 21.1241 285.51 21.4143Z" fill="#2F2E41"/>
<path d="M274.801 21.4138C278.678 21.4138 281.821 18.2875 281.821 14.431C281.821 10.5745 278.678 7.44824 274.801 7.44824C270.923 7.44824 267.78 10.5745 267.78 14.431C267.78 18.2875 270.923 21.4138 274.801 21.4138Z" fill="#FFB8B8"/>
<path d="M283.825 12.8184C283.848 11.7449 283.628 10.6782 283.177 9.68176C282.726 8.68533 282.054 7.77949 281.201 7.01807C280.348 6.25665 279.332 5.65518 278.212 5.2494C277.092 4.84362 275.891 4.64182 274.682 4.65597C273.472 4.67012 272.278 4.89995 271.17 5.3318C270.063 5.76364 269.064 6.38869 268.234 7.1698C267.404 7.95092 266.76 8.87215 266.339 9.87878C265.918 10.8854 265.729 11.9569 265.784 13.0295C271.935 13.0411 278.086 13.0527 283.825 12.8184Z" fill="#2F2E41"/>
<path d="M269.46 77.6868C276.737 77.6568 283.967 78.7773 290.837 80.9999C291.076 70.3261 287.107 59.6325 279.929 51.6327L279.875 51.5729L279.902 51.4995C281.82 46.3716 283.801 41.0712 285.572 35.797L285.545 35.7084C284.303 31.6216 281.638 27.4918 277.396 23.0828C276.936 22.6416 276.312 22.3788 275.65 22.3478C274.989 22.3168 274.339 22.5198 273.833 22.9158C266.294 29.3133 262.195 38.8988 263.135 47.9319L263.138 47.9584L263.13 47.9841C259.808 58.3996 258.603 63.7493 257.539 68.4692C256.763 71.9123 256.091 74.8937 254.742 79.1535C259.577 78.1796 264.511 77.688 269.46 77.6868Z" fill="#3F3D56"/>
<path opacity="0.1" d="M280.818 44.6895L269.967 67.0343L263.769 61.0992L280.818 44.6895Z" fill="black"/>
<path d="M256.176 57.2863L256.909 58.5995C256.915 58.6116 256.917 58.6257 256.912 58.6387C256.907 58.6517 256.898 58.6625 256.884 58.6688L256.849 58.6856L260.663 65.5263C260.769 65.7156 260.789 65.9358 260.718 66.1386C260.648 66.3413 260.493 66.51 260.288 66.6074L255.657 68.8072C255.556 68.8555 255.445 68.8848 255.331 68.8935C255.217 68.9021 255.103 68.89 254.994 68.8579C254.885 68.8257 254.784 68.7741 254.697 68.7059C254.61 68.6378 254.538 68.5545 254.486 68.4608L250.806 61.8599L250.78 61.8721C250.771 61.8765 250.76 61.8773 250.75 61.8744C250.74 61.8715 250.732 61.8651 250.727 61.8566L250.31 61.1092C250.308 61.1049 250.307 61.1003 250.306 61.0955C250.306 61.0908 250.306 61.086 250.308 61.0814C250.31 61.0769 250.312 61.0726 250.315 61.069C250.319 61.0653 250.323 61.0623 250.327 61.0601L250.353 61.048L250.196 60.7665L250.17 60.7787C250.161 60.7833 250.149 60.7842 250.139 60.7811C250.128 60.7779 250.12 60.7711 250.115 60.7621L249.704 60.025C249.699 60.016 249.698 60.0056 249.701 59.996C249.705 59.9864 249.712 59.9784 249.722 59.9738L249.747 59.9616L249.533 59.5773L249.507 59.5897C249.498 59.5938 249.488 59.5946 249.479 59.5919C249.47 59.5892 249.462 59.5832 249.458 59.5753L249.233 59.1729C249.229 59.165 249.228 59.1557 249.231 59.1471C249.234 59.1386 249.24 59.1314 249.249 59.1273L249.275 59.1148L248.821 58.3003C248.716 58.111 248.696 57.8909 248.766 57.6882C248.836 57.4855 248.991 57.3169 249.196 57.2195L253.827 55.0196C254.032 54.9222 254.271 54.904 254.49 54.9689C254.71 55.0338 254.893 55.1766 254.998 55.3659L256.066 57.2808L256.101 57.2641C256.114 57.2578 256.13 57.2567 256.144 57.2609C256.158 57.265 256.17 57.2742 256.176 57.2863Z" fill="#3F3D56"/>
<path d="M254.631 55.2229L260.694 65.8834C260.766 66.0105 260.78 66.1582 260.731 66.2942C260.683 66.4303 260.577 66.5434 260.437 66.6087L255.655 68.8361C255.515 68.9016 255.352 68.9141 255.201 68.8708C255.051 68.8275 254.926 68.732 254.854 68.6053L254.853 68.6039L248.791 57.9434C248.755 57.8805 248.733 57.8118 248.727 57.7413C248.72 57.6708 248.729 57.5998 248.753 57.5325C248.777 57.4651 248.815 57.4027 248.866 57.3487C248.916 57.2947 248.978 57.2502 249.047 57.2179L249.763 56.8845L249.811 56.9676C249.84 57.0194 249.88 57.0654 249.93 57.1031C249.979 57.1407 250.035 57.1693 250.097 57.187C250.158 57.2048 250.223 57.2115 250.287 57.2067C250.351 57.2019 250.413 57.1857 250.471 57.159L252.903 56.0262C253.018 55.9724 253.106 55.8792 253.145 55.7672C253.185 55.6551 253.174 55.5334 253.114 55.4288L253.067 55.3457L253.83 54.9904C253.97 54.925 254.133 54.9128 254.284 54.9563C254.434 54.9998 254.559 55.0956 254.631 55.2226L254.631 55.2229Z" fill="#6ABF69"/>
<path d="M256.021 67.9584C256.464 67.9319 256.894 67.8223 257.282 67.6373C257.671 67.4522 258.007 67.1963 258.268 66.8874C258.528 66.5786 258.707 66.2244 258.791 65.8497C258.875 65.4751 258.863 65.0892 258.755 64.7191L267.78 59.6361L262.633 57.7246L254.851 62.8446C254.14 63.0419 253.538 63.4566 253.159 64.0102C252.779 64.5637 252.65 65.2176 252.794 65.8479C252.938 66.4783 253.346 67.0413 253.941 67.4303C254.535 67.8192 255.276 68.0072 256.021 67.9584Z" fill="#FFB8B8"/>
<path d="M264.885 64.2409L264.771 64.1674C262.61 62.7237 260.211 61.2307 257.89 59.7869L257.751 59.7002L257.861 59.5836C262.813 54.3247 267.771 48.8316 272.566 43.5178C272.562 43.5093 272.559 43.5031 272.557 43.4987L272.602 43.4778L272.621 43.4567L272.631 43.4644L272.66 43.451L272.529 43.4602L271.052 32.9402C269.717 31.2873 269.461 28.0055 271.21 25.7147C273.023 23.3416 276.856 22.5474 279.415 24.0144C280.085 24.4228 280.646 24.9628 281.055 25.5945C281.464 26.2261 281.712 26.9332 281.779 27.6634C281.874 28.314 281.808 28.9755 281.585 29.5999C281.362 30.2242 280.989 30.7955 280.492 31.2721C281.12 36.8394 281.144 41.8157 281.168 46.6293L281.168 46.6773L281.135 46.7169C276.023 52.6116 270.408 58.4748 264.977 64.1451L264.885 64.2409Z" fill="#3F3D56"/>
<path d="M117.843 35.379C126.982 35.379 134.391 28.7096 134.391 20.4825C134.391 12.2554 126.982 5.58594 117.843 5.58594C108.704 5.58594 101.295 12.2554 101.295 20.4825C101.295 28.7096 108.704 35.379 117.843 35.379Z" fill="#6ABF69"/>
<path d="M116.355 27.0003L111.324 21.0527L114.25 18.9605L116.632 21.7766L124.68 13.9658L127.371 16.31L116.355 27.0003Z" fill="white"/>
<path d="M11.2304 133.548C11.0027 133.548 10.775 133.538 10.5474 133.525V133.956L13.5666 133.548H11.2304ZM54.4346 133.548V134.465H80.1026V133.548H54.4346ZM190.204 133.548L207.473 134.465H218.495L224.375 134.167L226.415 134.066L231.033 133.837L233.883 133.694L235.868 133.593H235.873L236.789 133.548H190.204ZM331.77 133.548H330.839L330.894 134.465H331.77C332.032 134.465 332.289 134.456 332.542 134.438L332.586 133.864L332.616 133.511C332.335 133.537 332.052 133.549 331.77 133.548ZM11.2304 133.548C11.0027 133.548 10.775 133.538 10.5474 133.525V133.956L13.5666 133.548H11.2304ZM54.4346 133.548V134.465H80.1026V133.548H54.4346ZM190.204 133.548L207.473 134.465H218.495L224.375 134.167L226.415 134.066L231.033 133.837L233.883 133.694L235.868 133.593H235.873L236.789 133.548H190.204ZM11.2304 133.548C11.0027 133.548 10.775 133.538 10.5474 133.525V133.956L13.5666 133.548H11.2304ZM19.6594 133.548V134.465H110.74V133.548H19.6594ZM190.204 133.548L207.473 134.465H218.495L224.375 134.167L226.415 134.066L231.033 133.837L233.883 133.694L235.868 133.593H235.873L236.789 133.548H190.204ZM331.77 133.548H292.985C292.931 133.85 292.881 134.158 292.837 134.465H331.77C332.032 134.465 332.289 134.456 332.542 134.438L332.586 133.864L332.616 133.511C332.335 133.537 332.052 133.549 331.77 133.548ZM11.2304 133.548C11.0027 133.548 10.775 133.538 10.5474 133.525V133.956L13.5666 133.548H11.2304ZM11.2304 133.548C11.0027 133.548 10.775 133.538 10.5474 133.525V133.956L13.5666 133.548H11.2304ZM11.2304 133.548C11.0027 133.548 10.775 133.538 10.5474 133.525V133.956L13.5666 133.548H11.2304ZM11.2304 133.548C11.0027 133.548 10.775 133.538 10.5474 133.525V133.956L13.5666 133.548H11.2304ZM11.2304 133.548C11.0027 133.548 10.775 133.538 10.5474 133.525V133.956L13.5666 133.548H11.2304ZM11.2304 133.548C11.0027 133.548 10.775 133.538 10.5474 133.525V133.956L13.5666 133.548H11.2304ZM11.2304 133.548C11.0027 133.548 10.775 133.538 10.5474 133.525V133.956L13.5666 133.548H11.2304ZM11.2304 133.548C11.0027 133.548 10.775 133.538 10.5474 133.525C8.91863 133.425 7.33926 132.966 5.9416 132.184C4.54393 131.402 3.36869 130.321 2.51434 129.032H1.36607C2.13046 130.326 3.18132 131.456 4.4497 132.347C5.71809 133.239 7.17537 133.871 8.72596 134.204L10.5474 133.956L13.5666 133.548H11.2304ZM331.77 0H11.2304C8.25302 0.0033253 5.39861 1.10148 3.29328 3.05358C1.18794 5.00568 0.00358665 7.65233 3.26011e-07 10.413V124.052C-0.000612356 126.411 0.862365 128.699 2.44762 130.544C4.03287 132.388 6.24647 133.678 8.72596 134.204C9.32483 134.33 9.93411 134.41 10.5474 134.442C10.7701 134.461 11.0027 134.465 11.2304 134.465H331.77C332.032 134.465 332.289 134.456 332.542 134.438C332.992 134.412 333.44 134.359 333.883 134.277C334.21 134.222 334.536 134.149 334.853 134.066C335.335 133.939 335.806 133.782 336.264 133.593C337.296 133.177 338.253 132.615 339.1 131.928C339.169 131.877 339.238 131.822 339.308 131.762C340.242 130.98 341.026 130.057 341.629 129.032C342.527 127.504 342.998 125.792 343 124.052V10.413C342.996 7.65233 341.812 5.00568 339.707 3.05358C337.601 1.10148 334.747 0.0033253 331.77 0ZM342.01 124.052C342.01 124.742 341.929 125.43 341.768 126.104C341.578 126.914 341.272 127.696 340.857 128.43C340.471 129.121 339.994 129.764 339.436 130.344V130.349L339.431 130.353C339.392 130.395 339.347 130.441 339.303 130.482C338.081 131.72 336.524 132.632 334.794 133.125C334.635 133.171 334.477 133.212 334.319 133.254C334.249 133.272 334.18 133.286 334.106 133.3C333.616 133.406 333.118 133.476 332.616 133.511C332.335 133.537 332.052 133.549 331.77 133.548H11.2304C11.0027 133.548 10.775 133.538 10.5474 133.525C7.95625 133.363 5.52805 132.295 3.75382 130.536C1.97958 128.778 0.99168 126.46 0.989877 124.052V72.3635C0.989877 72.0468 0.989874 71.7347 0.994823 71.4227C1.25283 52.6358 9.48513 34.7001 23.9075 21.5026C38.3299 8.30514 57.7805 0.909256 78.0436 0.917852H331.77C333.114 0.917604 334.446 1.16303 335.689 1.64012C336.931 2.11721 338.06 2.81661 339.011 3.69837C339.962 4.58013 340.717 5.62697 341.231 6.77909C341.746 7.93121 342.01 9.16603 342.01 10.413L342.01 124.052ZM11.2304 133.548C11.0027 133.548 10.775 133.538 10.5474 133.525V133.956L13.5666 133.548H11.2304ZM11.2304 133.548C11.0027 133.548 10.775 133.538 10.5474 133.525V133.956L13.5666 133.548H11.2304ZM11.2304 133.548C11.0027 133.548 10.775 133.538 10.5474 133.525V133.956L13.5666 133.548H11.2304ZM11.2304 133.548C11.0027 133.548 10.775 133.538 10.5474 133.525V133.956L13.5666 133.548H11.2304ZM11.2304 133.548C11.0027 133.548 10.775 133.538 10.5474 133.525V133.956L13.5666 133.548H11.2304ZM11.2304 133.548C11.0027 133.548 10.775 133.538 10.5474 133.525V133.956L13.5666 133.548H11.2304ZM11.2304 133.548C11.0027 133.548 10.775 133.538 10.5474 133.525V133.956L13.5666 133.548H11.2304ZM11.2304 133.548C11.0027 133.548 10.775 133.538 10.5474 133.525V133.956L13.5666 133.548H11.2304ZM190.204 133.548L207.473 134.465H218.495L224.375 134.167L226.415 134.066L231.033 133.837L233.883 133.694L235.868 133.593H235.873L236.789 133.548H190.204ZM54.4346 133.548V134.465H80.1026V133.548H54.4346ZM11.2304 133.548C11.0027 133.548 10.775 133.538 10.5474 133.525V133.956L13.5666 133.548H11.2304ZM190.204 133.548L207.473 134.465H218.495L224.375 134.167L226.415 134.066L231.033 133.837L233.883 133.694L235.868 133.593H235.873L236.789 133.548H190.204ZM54.4346 133.548V134.465H80.1026V133.548H54.4346ZM11.2304 133.548C11.0027 133.548 10.775 133.538 10.5474 133.525V133.956L13.5666 133.548H11.2304ZM331.77 133.548H330.839L330.894 134.465H331.77C332.032 134.465 332.289 134.456 332.542 134.438L332.586 133.864L332.616 133.511C332.335 133.537 332.052 133.549 331.77 133.548ZM190.204 133.548L207.473 134.465H218.495L224.375 134.167L226.415 134.066L231.033 133.837L233.883 133.694L235.868 133.593H235.873L236.789 133.548H190.204ZM54.4346 133.548V134.465H80.1026V133.548H54.4346Z" fill="#3F3D56"/>
</g>
<defs>
<clipPath id="clip0_510_1163">
<rect width="343" height="135" fill="white"/>
</clipPath>
</defs>
</svg>
