<svg width="343" height="135" viewBox="0 0 343 135" fill="none" xmlns="http://www.w3.org/2000/svg">
<g clip-path="url(#clip0_510_983)">
<path d="M343 10.413V124.052C342.998 125.792 342.527 127.504 341.629 129.032C341.026 130.057 340.242 130.98 339.308 131.762C339.238 131.822 339.169 131.877 339.1 131.928C338.253 132.615 337.296 133.177 336.264 133.593C335.806 133.782 335.335 133.94 334.853 134.066C334.536 134.149 334.21 134.222 333.883 134.277C333.44 134.359 332.992 134.412 332.542 134.438C332.289 134.456 332.032 134.465 331.77 134.465H218.495L212.828 134.75L207.473 134.465H11.2304C11.0027 134.465 10.7701 134.461 10.5474 134.442C9.93411 134.41 9.32483 134.33 8.72596 134.204C6.24647 133.678 4.03287 132.388 2.44762 130.544C0.862365 128.699 -0.000612356 126.411 3.26011e-07 124.052V10.413C0.00358665 7.65235 1.18794 5.00568 3.29328 3.05358C5.39861 1.10148 8.25302 0.0033253 11.2304 0H331.77C334.747 0.0033253 337.601 1.10148 339.707 3.05358C341.812 5.00568 342.996 7.65235 343 10.413Z" fill="#F2F2F2"/>
<path d="M343 10.413V124.052C342.998 125.792 342.527 127.504 341.629 129.032C341.026 130.057 340.242 130.98 339.308 131.762C339.238 131.822 339.169 131.877 339.1 131.928C338.253 132.615 337.296 133.177 336.264 133.593C335.806 133.782 335.335 133.94 334.853 134.066C334.536 134.149 334.21 134.222 333.883 134.277C333.44 134.359 332.992 134.412 332.542 134.438C332.289 134.456 332.032 134.465 331.77 134.465H218.495L212.828 134.75L207.473 134.465H11.2304C11.0027 134.465 10.7701 134.461 10.5474 134.442C9.93411 134.41 9.32483 134.33 8.72596 134.204C6.24647 133.678 4.03287 132.388 2.44762 130.544C0.862365 128.699 -0.000612356 126.411 3.26011e-07 124.052V10.413C0.00358665 7.65235 1.18794 5.00568 3.29328 3.05358C5.39861 1.10148 8.25302 0.0033253 11.2304 0H331.77C334.747 0.0033253 337.601 1.10148 339.707 3.05358C341.812 5.00568 342.996 7.65235 343 10.413Z" fill="#F2F2F2"/>
<path d="M80.1027 0C62.5382 37.9872 65.9065 84.1196 80.1027 134.465H178.642C190.965 84.0622 197.203 36.4151 178.642 0H80.1027Z" fill="#E4E4E4"/>
<path d="M40.3582 0C8.2637 36.6223 17.2177 83.7316 40.3582 134.465H80.1027C65.7696 86.5363 63.4264 41.2065 80.1027 0H40.3582Z" fill="#CACACA"/>
<path d="M160.425 3.11719H145.521V16.9372H160.425V3.11719Z" fill="white"/>
<path d="M136.412 3.11719H121.507V16.9372H136.412V3.11719Z" fill="white"/>
<path d="M112.398 3.11719H97.4937V16.9372H112.398V3.11719Z" fill="white"/>
<path d="M160.011 34.5962H145.106V48.4162H160.011V34.5962Z" fill="white"/>
<path d="M135.998 34.5962H121.093V48.4162H135.998V34.5962Z" fill="white"/>
<path d="M111.984 34.5962H97.0796V48.4162H111.984V34.5962Z" fill="white"/>
<path d="M159.597 66.0752H144.692V79.8952H159.597V66.0752Z" fill="white"/>
<path d="M135.584 66.0752H120.679V79.8952H135.584V66.0752Z" fill="white"/>
<path d="M111.57 66.0752H96.6655V79.8952H111.57V66.0752Z" fill="white"/>
<path d="M159.183 97.5542H144.278V111.374H159.183V97.5542Z" fill="white"/>
<path d="M135.17 97.5542H120.265V111.374H135.17V97.5542Z" fill="white"/>
<path d="M111.156 97.5542H96.2515V111.374H111.156V97.5542Z" fill="white"/>
<path d="M158.77 129.032H143.862V134.465H158.77V129.032Z" fill="white"/>
<path d="M134.755 129.032H119.852V134.465H134.755V129.032Z" fill="white"/>
<path d="M110.74 129.032H95.8369V134.465H110.74V129.032Z" fill="white"/>
<path d="M3.26011e-07 71.4226V124.052C-0.000612356 126.411 0.862365 128.699 2.44762 130.543C4.03287 132.388 6.24647 133.678 8.72596 134.204C9.32484 134.33 9.93411 134.41 10.5474 134.442C10.7701 134.461 11.0027 134.465 11.2304 134.465H54.4346C63.5052 109.835 80.1818 4.13025 11.8788 13.3088L3.26011e-07 71.4226Z" fill="#E4E4E4"/>
<path d="M34.9761 97.5542H20.0713V111.374H34.9761V97.5542Z" fill="white"/>
<path d="M10.9631 97.5537H0V111.372H10.9631V97.5537Z" fill="white"/>
<path d="M34.5621 129.032H19.6592V134.465H34.5621V129.032Z" fill="white"/>
<path d="M1.36621 129.032C2.13061 130.326 3.18146 131.456 4.44985 132.347C5.71824 133.239 7.17552 133.871 8.72612 134.204C9.32499 134.33 9.93427 134.41 10.5475 134.442V129.032H1.36621Z" fill="white"/>
<path d="M343 86.1864V124.052C342.998 125.792 342.527 127.504 341.629 129.032L340.857 128.431L339.367 127.274L331.121 120.881L333.17 128.711L330.76 128.83L330.572 128.839L326.197 129.059L322.371 129.252H322.356L316.896 129.527L311.566 129.794L309.789 129.881L298.469 130.45L293.644 130.693L291.456 130.803L285.67 131.092L277.909 131.482L276.469 131.556L253.691 132.699L239.204 133.428L236.957 133.538L236.789 133.548L235.873 133.594H235.868L233.883 133.694L231.033 133.837L226.415 134.066L224.376 134.167L218.496 134.465L212.828 134.75L207.473 134.465L190.204 133.548L179.008 132.951L178.642 132.933L158.77 131.877L143.862 131.083L134.755 130.601L119.852 129.807L112.982 129.445L110.74 129.325L105.226 129.032L80.1027 127.696L78.2318 127.595L78.1279 127.591L69.0258 127.109L63.3438 126.806L75.2819 116.521L75.4453 116.379L80.1027 112.368C83.4536 106.792 86.6707 101.161 96.2529 98.4535L97.2973 97.554L111.685 85.1584L114.14 85.1263L178.642 84.337L188.383 84.2176L208.339 83.9744L215.57 83.8872L220.911 84.1763L267.179 86.6912L270.193 86.8565L285.576 87.6917L299.811 88.4627L306.577 88.8298L308.23 88.9216L308.339 88.9262L309.17 88.9721L311.398 88.7885L314.135 88.5637L315.149 88.4811L315.615 88.4398L325.36 87.6412L326.177 87.5724L328.508 87.3796L342.01 104.635L343 86.1864Z" fill="#3F3D56"/>
<path d="M290.756 127.117C283.899 117.913 278.901 94.5437 280.857 84.8954C280.771 84.5805 284.862 89.8734 284.875 89.5451C284.94 87.9244 286.186 86.6685 287.657 86.74L306.148 87.6385C306.606 87.6751 307.045 87.8224 307.422 88.0657C307.799 88.3089 308.101 88.6396 308.297 89.0247L322.277 113.849C322.498 114.246 322.63 114.68 322.666 115.126C322.802 116.741 321.724 118.172 320.257 118.322L295.466 120.861C295.384 120.869 295.302 120.874 295.22 120.874C294.042 120.871 291.096 128.358 290.756 127.117Z" fill="white"/>
<path d="M212.043 127.031L212.225 127.944L212.929 131.459C213.071 132.174 213.291 132.874 213.586 133.547C213.673 133.759 213.773 133.965 213.879 134.167C213.931 134.268 213.984 134.364 214.043 134.465H264.808L273.234 133.561L273.339 133.547C275.076 133.326 276.69 132.592 277.942 131.455C278.981 130.496 279.805 129.356 280.368 128.1C280.93 126.845 281.22 125.499 281.22 124.14C281.231 123.76 281.219 123.38 281.184 123.001C281.139 122.465 281.049 121.933 280.915 121.409C281.863 111.427 279.365 101.697 273.615 92.2028C273.143 90.1735 271.99 88.3353 270.32 86.9527C268.948 85.8265 267.201 85.1691 265.371 85.0895L224.392 83.5291C222.831 83.4826 221.291 83.8711 219.971 84.6443C217.461 86.0853 215.638 88.8022 215.28 92.0697C211.83 102.341 210.679 113.157 211.897 123.855C211.784 124.915 211.833 125.984 212.043 127.031Z" fill="white"/>
<path d="M197.041 131.71L91.7488 128.869C90.4252 128.833 70.8484 135.996 69.898 134.882C67.8168 132.443 67.7659 128.426 69.7846 125.911L115.781 83.6161C116.203 83.0438 116.763 82.5712 117.418 82.2365C118.073 81.9017 118.803 81.7142 119.55 81.689H204.305C204.706 81.6893 205.105 81.7443 205.489 81.8522C208.313 82.642 210.074 86.0495 209.42 89.4632L202.273 126.797C201.715 129.669 199.598 131.702 197.157 131.712C197.119 131.712 197.08 131.712 197.041 131.71Z" fill="white"/>
<path d="M307.114 90.564L217.628 84.8417L111.686 85.1596C124.718 72.3821 181.997 56.8034 243.342 75.6225C304.714 77.5299 309.171 88.9744 309.171 88.9744L309.936 90.0868L307.114 90.564Z" fill="#6ABF69"/>
<path d="M342.565 126.916C342.339 127.652 342.026 128.361 341.629 129.032C341.027 130.057 340.242 130.98 339.308 131.762C339.239 131.822 339.169 131.877 339.1 131.928C338.253 132.615 337.296 133.177 336.264 133.594C335.806 133.782 335.335 133.94 334.853 134.066C334.536 134.149 334.21 134.222 333.883 134.277C333.44 134.359 332.992 134.412 332.542 134.438C332.289 134.456 332.032 134.466 331.77 134.466H218.496L212.828 134.75L207.473 134.466H11.2305C11.0028 134.466 10.7702 134.461 10.5475 134.443C9.93423 134.41 9.32495 134.331 8.72607 134.204L10.5475 133.956L13.5667 133.548L19.6595 132.722L34.5625 130.702L40.3583 129.918L54.4347 128.013L56.7857 127.696L63.3438 126.806L69.1297 126.912L77.9844 127.077H78.0933L80.1028 127.114L93.5605 127.361L98.505 127.453L134.775 128.119L138.091 128.178L143.036 128.27L158.78 128.564L178.642 128.926L179.969 128.949L201.237 129.344L201.514 129.349L212.363 128.637L222.98 127.944L231.023 127.421L233.616 127.251L233.715 127.247L234.289 127.21L234.666 127.182L237.823 126.976L249.638 126.205L254.899 125.861L257.166 125.714L259.537 125.558L281.221 124.14L287.259 123.745H287.264L290.565 123.529L296.618 123.135H296.623L302.845 122.726H302.85L305.265 122.57L306.191 122.511L313.239 122.052L317.5 121.772L324.816 121.294L327.078 121.148L330.117 120.946L330.948 120.891L331.121 120.881C331.121 120.881 333.665 120.932 336.982 122.639C338.032 123.181 339.024 123.815 339.946 124.53C340.585 125.022 341.193 125.548 341.768 126.104C342.035 126.361 342.297 126.632 342.565 126.916Z" fill="#6ABF69"/>
<path d="M230.354 134.465H238.031L237.328 133.86L236.967 133.547L236.957 133.538L235.339 132.148L234.052 131.037L233.007 132.005L232.587 132.396L231.344 133.547L231.033 133.837L230.354 134.465Z" fill="#CACACA"/>
<path d="M272.41 134.465H284.215L286.031 133.547L291.456 130.803L292.733 130.156L302.845 122.726H302.85L305.389 120.863L306.705 119.894L308.334 118.696L316.377 112.79C316.599 112.626 316.806 112.445 316.995 112.249C317.433 111.789 317.765 111.251 317.971 110.667C318.177 110.084 318.253 109.468 318.193 108.857C318.19 108.805 318.181 108.752 318.168 108.701C318.08 108.029 317.829 107.383 317.434 106.813C317.039 106.244 316.51 105.764 315.887 105.411C315.008 104.911 313.981 104.683 312.953 104.76C311.926 104.836 310.951 105.214 310.17 105.837L304.27 110.45L301.914 112.29L292.792 119.422L287.264 123.745H287.259L286.204 124.571L276.469 131.556L273.687 133.547L272.41 134.465Z" fill="#FFB6B6"/>
<path d="M313.28 118.344C313.592 118.384 313.909 118.328 314.182 118.184C314.456 118.041 314.671 117.818 314.795 117.55C314.955 117.222 315.221 116.948 315.556 116.767C315.621 116.733 315.689 116.703 315.758 116.677C316.181 116.529 316.56 116.289 316.862 115.976C317.163 115.664 317.379 115.289 317.491 114.882C317.837 113.54 318.95 112.238 320.068 111.234C321.291 110.136 322.597 109.082 323.501 107.744C324.805 105.813 325.171 103.104 322.655 101.493C321.573 100.823 320.276 100.52 318.981 100.634C316.271 100.838 314.029 102.372 311.9 103.858L312.433 102.888C310.138 104.548 307.505 105.762 304.692 106.456C305.178 106.867 304.756 107.687 304.132 107.878C303.507 108.069 302.833 107.868 302.19 107.741C301.379 107.582 300.376 107.595 300.056 108.493C299.986 108.71 299.965 108.938 299.994 109.163C300.024 109.387 300.103 109.604 300.227 109.799C302.487 113.527 305.555 116.782 309.236 119.359C310.055 119.931 311.004 120.494 312.022 120.382C313.039 120.27 313.905 119.098 313.28 118.344Z" fill="#6ABF69"/>
<path d="M311.036 125.938L311.566 129.793L312.08 133.547L312.135 133.947L312.209 134.465H331.77C332.032 134.465 332.289 134.456 332.542 134.438C332.992 134.412 333.44 134.359 333.883 134.277L334.106 133.3L334.234 132.717L326.053 130.326L322.37 129.252H322.361L317.04 127.692L311.036 125.938Z" fill="#FFB6B6"/>
<path d="M303.439 116.88C303.839 117.701 304.379 118.798 304.983 120.042C305.116 120.308 305.25 120.583 305.389 120.863C305.646 121.395 305.913 121.946 306.19 122.511C307.413 125.021 308.744 127.747 309.789 129.881C310.655 131.666 311.328 133.043 311.571 133.548C311.645 133.69 311.679 133.763 311.679 133.763L312.135 133.947L313.437 134.466H331.769C332.032 134.466 332.289 134.456 332.542 134.438C332.992 134.413 333.44 134.359 333.883 134.277C334.21 134.222 334.536 134.149 334.853 134.066C335.335 133.94 335.806 133.782 336.264 133.594C337.296 133.177 338.252 132.615 339.1 131.928C339.139 131.611 339.218 131.102 339.303 130.482C339.435 129.557 339.506 128.625 339.515 127.692C339.515 126.944 337.536 125.732 336.981 122.639C336.795 121.509 336.793 120.36 336.976 119.229C338.001 112.263 337.64 101.602 330.398 99.5184L325.192 91.0649H315.258L313.644 95.4752V95.4798L312.719 98.0085L312.165 99.5184L312.046 99.6652L308.502 103.975C308.502 103.975 307.938 104.64 307.166 105.691V105.695C306.051 107.198 305.082 108.789 304.27 110.45C303.74 111.526 303.358 112.659 303.132 113.823C302.911 114.848 303.018 115.91 303.439 116.88Z" fill="#2F2E41"/>
<path d="M324.373 82.5452C317.075 87.6933 308.946 91.7904 307.414 97.4558C307.414 97.4558 308.332 88.5542 304.051 90.2415C296.858 93.0764 299.292 77.6588 301.309 75.1377C304.671 70.9359 316.007 68.5483 316.007 68.5483L324.049 72.6417L324.373 82.5452Z" fill="#2F2E41"/>
<path d="M311.664 88.792C318.626 88.792 324.269 83.5592 324.269 77.1042C324.269 70.6493 318.626 65.4165 311.664 65.4165C304.703 65.4165 299.059 70.6493 299.059 77.1042C299.059 83.5592 304.703 88.792 311.664 88.792Z" fill="#FFB6B6"/>
<path d="M316.204 72.6324L316.689 74.6078L308.209 76.3977C308.202 75.9982 308.105 75.6044 307.926 75.2411C307.747 74.8778 307.488 74.5528 307.167 74.2865C307.35 75.0611 307.329 75.8651 307.106 76.6306C302.533 79.0099 302.796 79.8528 299.1 79.2461C298.852 79.2984 298.595 79.305 298.345 79.2653C298.094 79.2257 297.854 79.1407 297.639 79.0152C297.424 78.8896 297.237 78.726 297.09 78.5336C296.943 78.3413 296.839 78.124 296.782 77.8941C295.295 71.8375 294.806 65.6473 301.306 64.144C302.886 63.7777 304.529 63.7076 306.139 63.9377C307.748 64.1679 309.292 64.6937 310.68 65.4843C312.067 66.2749 313.271 67.3144 314.219 68.5418C315.168 69.7693 315.842 71.16 316.204 72.6324Z" fill="#2F2E41"/>
<path d="M314.13 80.5136C313.715 78.8265 312.901 77.2458 311.747 75.8856C310.593 74.5254 309.128 73.4196 307.457 72.648C305.787 71.8764 303.952 71.4583 302.086 71.4237C300.22 71.3891 298.369 71.739 296.667 72.4481C297.257 70.8343 298.45 69.4697 300.031 68.6013L309.576 64.7592C314.284 63.7654 321.736 60.9449 325.137 63.6459C328.27 66.1272 326.745 70.9843 329.63 73.7045C332.791 76.6856 333.06 80.2105 332.163 82.2379C331.126 84.5834 329.051 87.7834 326.461 88.4761C326.326 87.6506 325.882 86.8955 325.207 86.3435C325.393 87.1302 325.41 87.9434 325.255 88.7359L309.576 100.331C311.04 99.1495 312.288 96.1068 313.147 92.6796C313.656 90.6509 316.69 89.9389 314.229 86.496C311.768 83.053 314.464 81.8748 314.13 80.5136Z" fill="#2F2E41"/>
<path d="M326.687 67.5813L326.643 67.6629C326.59 67.7717 326.536 67.8804 326.492 67.9937L326.487 67.9982C326.248 68.0798 325.979 67.9484 325.715 67.7399C325.756 68.23 325.785 68.7042 325.807 69.1689L317.46 66.1403C318.912 66.3727 319.127 61.5839 320.168 62.5015C320.227 62.5514 320.28 62.6012 320.334 62.6511C320.204 62.3623 320.116 62.0592 320.07 61.7493C320.026 61.3603 320.059 60.9671 320.168 60.5892C320.17 60.5875 320.171 60.5853 320.172 60.583C320.173 60.5806 320.173 60.5781 320.173 60.5756C320.277 60.234 320.438 59.9097 320.652 59.615C320.959 59.1863 321.348 58.8131 321.8 58.5138C322.377 58.1054 323.049 57.8286 323.762 57.7058C324.475 57.583 325.209 57.6176 325.906 57.8069C327.5 58.3662 328.818 59.4479 329.61 60.8475C330.332 61.9247 330.7 63.1732 330.671 64.441C330.641 64.7737 330.563 65.1013 330.441 65.4153C330.288 65.8562 330.028 66.2585 329.681 66.591C329.333 66.9235 328.908 67.1771 328.437 67.3321C328.32 67.3684 328.183 67.4091 328.036 67.459C327.958 66.8693 327.953 66.2733 328.022 65.6826C327.478 66.251 327.029 66.8908 326.687 67.5813Z" fill="#2F2E41"/>
<path d="M318.604 65.8322C318.615 66.0849 318.647 66.3365 318.702 66.5844C318.706 66.6165 318.712 66.6483 318.721 66.6796C319.063 68.0888 320.916 65.157 322.347 66.1403C323.24 66.7365 324.23 67.1955 325.28 67.4998C325.324 67.3865 325.715 67.6085 325.769 67.4998C325.783 67.4726 325.754 67.0738 325.769 67.0466C324.875 66.7278 324.049 66.2679 323.325 65.6872C321.981 64.7673 322.172 65.6282 321.859 64.3277C321.497 62.8278 319.366 63.4712 320.461 62.7598L320.334 62.5967C319.557 63.0944 318.983 63.8209 318.707 64.6585C318.707 64.661 318.707 64.6635 318.706 64.6658C318.705 64.6682 318.703 64.6703 318.702 64.6721C318.62 65.0539 318.587 65.4433 318.604 65.8322Z" fill="#6ABF69"/>
<path d="M316.51 134.466H325.593L325.697 133.548L326.053 130.326L326.196 129.059L326.81 123.548L327.077 121.148L327.666 115.856L327.864 114.075C327.99 112.896 327.612 111.718 326.81 110.796C326.008 109.873 324.848 109.279 323.578 109.142C323.394 109.122 323.209 109.112 323.024 109.11H323.009C322.784 109.112 322.559 109.126 322.336 109.151C321.192 109.303 320.143 109.827 319.376 110.629C318.651 111.381 318.222 112.339 318.158 113.346L318.153 113.415V113.419L317.723 118.945L317.5 121.772L317.381 123.337L317.04 127.692L316.896 129.527L316.585 133.548L316.51 134.466Z" fill="#FFB6B6"/>
<path d="M329.988 120.01C330.236 119.831 330.414 119.582 330.494 119.3C330.574 119.018 330.553 118.719 330.432 118.45C330.29 118.115 330.265 117.748 330.359 117.399C330.378 117.331 330.402 117.265 330.43 117.201C330.612 116.817 330.69 116.398 330.659 115.98C330.629 115.561 330.49 115.156 330.254 114.798C329.459 113.631 329.231 111.984 329.236 110.541C329.241 108.962 329.339 107.359 328.936 105.825C328.356 103.611 326.519 101.477 323.519 102.023C322.247 102.274 321.106 102.924 320.291 103.863C318.557 105.805 318.176 108.364 317.838 110.815L317.46 109.783C317.141 112.467 316.24 115.062 314.813 117.414C315.469 117.378 315.808 118.231 315.52 118.779C315.231 119.327 314.605 119.634 314.058 119.972C313.369 120.399 312.679 121.075 313.15 121.914C313.268 122.112 313.429 122.285 313.624 122.422C313.818 122.559 314.04 122.658 314.277 122.712C318.735 123.814 323.389 124.049 327.949 123.404C328.962 123.26 330.06 123.022 330.683 122.268C331.307 121.515 331.006 120.122 329.988 120.01Z" fill="#6ABF69"/>
<path d="M233.616 129.592C233.616 130.884 234.17 132.124 235.156 133.038C236.142 133.952 237.479 134.465 238.873 134.465H249.643C251.037 134.465 252.374 133.952 253.359 133.038C254.345 132.124 254.899 130.884 254.899 129.592V125.876C254.899 125.089 254.694 124.315 254.301 123.618C253.908 122.921 253.339 122.322 252.642 121.873C251.946 121.425 251.142 121.139 250.301 121.04C249.459 120.942 248.604 121.034 247.81 121.308L237.04 125.024C236.035 125.37 235.168 125.994 234.556 126.81C233.944 127.627 233.616 128.597 233.616 129.592Z" fill="#CACACA"/>
<path d="M11.2304 133.548C11.0027 133.548 10.775 133.538 10.5474 133.525V133.956L13.5666 133.548H11.2304ZM54.4346 133.548V134.465H80.1026V133.548H54.4346ZM190.204 133.548L207.473 134.465H218.495L224.375 134.167L226.415 134.066L231.033 133.837L233.883 133.694L235.868 133.593H235.873L236.789 133.548H190.204ZM331.77 133.548H330.839L330.894 134.465H331.77C332.032 134.465 332.289 134.456 332.542 134.438L332.586 133.864L332.616 133.511C332.335 133.537 332.052 133.549 331.77 133.548ZM11.2304 133.548C11.0027 133.548 10.775 133.538 10.5474 133.525V133.956L13.5666 133.548H11.2304ZM54.4346 133.548V134.465H80.1026V133.548H54.4346ZM190.204 133.548L207.473 134.465H218.495L224.375 134.167L226.415 134.066L231.033 133.837L233.883 133.694L235.868 133.593H235.873L236.789 133.548H190.204ZM11.2304 133.548C11.0027 133.548 10.775 133.538 10.5474 133.525V133.956L13.5666 133.548H11.2304ZM19.6594 133.548V134.465H110.74V133.548H19.6594ZM190.204 133.548L207.473 134.465H218.495L224.375 134.167L226.415 134.066L231.033 133.837L233.883 133.694L235.868 133.593H235.873L236.789 133.548H190.204ZM331.77 133.548H292.985C292.931 133.85 292.881 134.158 292.837 134.465H331.77C332.032 134.465 332.289 134.456 332.542 134.438L332.586 133.864L332.616 133.511C332.335 133.537 332.052 133.549 331.77 133.548ZM11.2304 133.548C11.0027 133.548 10.775 133.538 10.5474 133.525V133.956L13.5666 133.548H11.2304ZM11.2304 133.548C11.0027 133.548 10.775 133.538 10.5474 133.525V133.956L13.5666 133.548H11.2304ZM11.2304 133.548C11.0027 133.548 10.775 133.538 10.5474 133.525V133.956L13.5666 133.548H11.2304ZM11.2304 133.548C11.0027 133.548 10.775 133.538 10.5474 133.525V133.956L13.5666 133.548H11.2304ZM11.2304 133.548C11.0027 133.548 10.775 133.538 10.5474 133.525V133.956L13.5666 133.548H11.2304ZM11.2304 133.548C11.0027 133.548 10.775 133.538 10.5474 133.525V133.956L13.5666 133.548H11.2304ZM11.2304 133.548C11.0027 133.548 10.775 133.538 10.5474 133.525V133.956L13.5666 133.548H11.2304ZM11.2304 133.548C11.0027 133.548 10.775 133.538 10.5474 133.525C8.91863 133.425 7.33926 132.966 5.9416 132.184C4.54393 131.402 3.36869 130.321 2.51434 129.032H1.36607C2.13046 130.326 3.18132 131.456 4.4497 132.347C5.71809 133.239 7.17537 133.871 8.72596 134.204L10.5474 133.956L13.5666 133.548H11.2304ZM331.77 0H11.2304C8.25302 0.0033253 5.39861 1.10148 3.29328 3.05358C1.18794 5.00568 0.00358665 7.65233 3.26011e-07 10.413V124.052C-0.000612356 126.411 0.862365 128.699 2.44762 130.544C4.03287 132.388 6.24647 133.678 8.72596 134.204C9.32483 134.33 9.93411 134.41 10.5474 134.442C10.7701 134.461 11.0027 134.465 11.2304 134.465H331.77C332.032 134.465 332.289 134.456 332.542 134.438C332.992 134.412 333.44 134.359 333.883 134.277C334.21 134.222 334.536 134.149 334.853 134.066C335.335 133.939 335.806 133.782 336.264 133.593C337.296 133.177 338.253 132.615 339.1 131.928C339.169 131.877 339.238 131.822 339.308 131.762C340.242 130.98 341.026 130.057 341.629 129.032C342.527 127.504 342.998 125.792 343 124.052V10.413C342.996 7.65233 341.812 5.00568 339.707 3.05358C337.601 1.10148 334.747 0.0033253 331.77 0ZM342.01 124.052C342.01 124.742 341.929 125.43 341.768 126.104C341.578 126.914 341.272 127.696 340.857 128.43C340.471 129.121 339.994 129.764 339.436 130.344V130.349L339.431 130.353C339.392 130.395 339.347 130.441 339.303 130.482C338.081 131.72 336.524 132.632 334.794 133.125C334.635 133.171 334.477 133.212 334.319 133.254C334.249 133.272 334.18 133.286 334.106 133.3C333.616 133.406 333.118 133.476 332.616 133.511C332.335 133.537 332.052 133.549 331.77 133.548H11.2304C11.0027 133.548 10.775 133.538 10.5474 133.525C7.95625 133.363 5.52805 132.295 3.75382 130.536C1.97958 128.778 0.99168 126.46 0.989877 124.052V72.3635C0.989877 72.0468 0.989874 71.7347 0.994823 71.4227C1.25283 52.6358 9.48513 34.7001 23.9075 21.5026C38.3299 8.30514 57.7805 0.909256 78.0436 0.917852H331.77C333.114 0.917604 334.446 1.16303 335.689 1.64012C336.931 2.11721 338.06 2.81661 339.011 3.69837C339.962 4.58013 340.717 5.62697 341.231 6.77909C341.746 7.93121 342.01 9.16603 342.01 10.413L342.01 124.052ZM11.2304 133.548C11.0027 133.548 10.775 133.538 10.5474 133.525V133.956L13.5666 133.548H11.2304ZM11.2304 133.548C11.0027 133.548 10.775 133.538 10.5474 133.525V133.956L13.5666 133.548H11.2304ZM11.2304 133.548C11.0027 133.548 10.775 133.538 10.5474 133.525V133.956L13.5666 133.548H11.2304ZM11.2304 133.548C11.0027 133.548 10.775 133.538 10.5474 133.525V133.956L13.5666 133.548H11.2304ZM11.2304 133.548C11.0027 133.548 10.775 133.538 10.5474 133.525V133.956L13.5666 133.548H11.2304ZM11.2304 133.548C11.0027 133.548 10.775 133.538 10.5474 133.525V133.956L13.5666 133.548H11.2304ZM11.2304 133.548C11.0027 133.548 10.775 133.538 10.5474 133.525V133.956L13.5666 133.548H11.2304ZM11.2304 133.548C11.0027 133.548 10.775 133.538 10.5474 133.525V133.956L13.5666 133.548H11.2304ZM190.204 133.548L207.473 134.465H218.495L224.375 134.167L226.415 134.066L231.033 133.837L233.883 133.694L235.868 133.593H235.873L236.789 133.548H190.204ZM54.4346 133.548V134.465H80.1026V133.548H54.4346ZM11.2304 133.548C11.0027 133.548 10.775 133.538 10.5474 133.525V133.956L13.5666 133.548H11.2304ZM190.204 133.548L207.473 134.465H218.495L224.375 134.167L226.415 134.066L231.033 133.837L233.883 133.694L235.868 133.593H235.873L236.789 133.548H190.204ZM54.4346 133.548V134.465H80.1026V133.548H54.4346ZM11.2304 133.548C11.0027 133.548 10.775 133.538 10.5474 133.525V133.956L13.5666 133.548H11.2304ZM331.77 133.548H330.839L330.894 134.465H331.77C332.032 134.465 332.289 134.456 332.542 134.438L332.586 133.864L332.616 133.511C332.335 133.537 332.052 133.549 331.77 133.548ZM190.204 133.548L207.473 134.465H218.495L224.375 134.167L226.415 134.066L231.033 133.837L233.883 133.694L235.868 133.593H235.873L236.789 133.548H190.204ZM54.4346 133.548V134.465H80.1026V133.548H54.4346Z" fill="#3F3D56"/>
</g>
<defs>
<clipPath id="clip0_510_983">
<rect width="343" height="135" fill="white"/>
</clipPath>
</defs>
</svg>
