<svg width="130" height="144" viewBox="0 0 130 144" fill="none" xmlns="http://www.w3.org/2000/svg">
<path d="M80.7409 93.926L85.1199 66.5575L55.5619 54.5154L51.183 96.1155L80.7409 93.926Z" fill="#A0616A"/>
<path d="M110.448 134.373C107.91 135.61 105.324 136.727 102.699 137.718C97.4497 139.704 92.0309 141.203 86.4721 142.204C81.0388 143.185 75.4606 143.683 69.8823 143.683C62.3464 143.683 54.8539 142.779 47.6081 140.99C44.7707 140.294 41.909 139.444 39.0958 138.452C38.8008 138.346 38.5012 138.24 38.2063 138.133C34.7163 136.867 31.2842 135.383 27.9828 133.706C27.538 133.483 27.0933 133.256 26.6487 133.014C26.1556 132.763 25.6674 132.497 25.1743 132.222C24.5459 131.878 23.9223 131.521 23.2987 131.158C21.2106 129.95 19.1562 128.644 17.1937 127.286L17.0632 127.199C16.9471 127.117 16.8311 127.04 16.72 126.958C16.7924 126.576 16.8602 126.228 16.923 125.918C17.1646 124.705 17.3242 124.038 17.3242 124.038L30.5591 96.6978L34.2474 89.0798L36.0456 88.34L49.6287 82.7571H82.8273L93.3022 87.0882C93.3022 87.0882 93.3554 87.2864 93.4618 87.6683C94.5058 91.4145 100.596 112.683 110.047 133.493C110.177 133.783 110.312 134.078 110.448 134.373Z" fill="#6ABF69"/>
<path d="M73.2714 75.3554C89.9184 75.3554 103.413 61.8603 103.413 45.2133C103.413 28.5663 89.9184 15.0713 73.2714 15.0713C56.6244 15.0713 43.1294 28.5663 43.1294 45.2133C43.1294 61.8603 56.6244 75.3554 73.2714 75.3554Z" fill="#A0616A"/>
<path d="M36.0984 88.0806L36.0465 88.34L26.8569 132.033L26.7774 132.413L26.6494 133.015C26.1548 132.763 25.6671 132.497 25.176 132.223C24.5465 131.877 23.924 131.521 23.2979 131.158C21.2124 129.951 19.1579 128.644 17.1934 127.288L17.062 127.198C16.9479 127.118 16.8303 127.039 16.7196 126.959C15.2185 125.911 13.7555 124.818 12.3271 123.691C12.3167 123.684 12.3098 123.677 12.2994 123.667C9.75042 121.612 7.29479 119.402 4.94636 117.054C3.43149 115.539 1.97539 113.979 0.581543 112.378L0.792539 111.492L0.81329 111.402L1.07613 110.275C3.41418 100.4 11.3241 92.8224 21.2885 90.9132L34.5282 88.378L36.0984 88.0806Z" fill="#6ABF69"/>
<path d="M129.972 121.597C126.071 124.918 121.889 127.925 117.476 130.564C117.046 130.825 116.606 131.081 116.166 131.337C114.291 132.42 112.381 133.43 110.448 134.373C107.91 135.61 105.324 136.727 102.699 137.718L102.496 136.761L92.1179 87.4121L93.4617 87.6684L106.929 90.2496C116.891 92.1591 124.804 99.7383 127.139 109.614L129.715 120.524L129.972 121.597Z" fill="#6ABF69"/>
<path d="M107.983 53.2708C107.2 56.1904 103.26 69.237 93.1717 71.9825C91.1899 72.5239 86.4625 73.1475 87.7145 71.9825C87.9996 71.7167 88.2751 71.4557 88.5507 71.1993C99.4992 60.9034 103.966 54.61 101.926 40.64C100.63 31.7456 85.8776 23.6683 77.5778 22.8658C74.0781 22.5278 69.6117 23.7118 66.6631 26.7622C61.7954 31.7891 62.5978 47.219 59.9006 56.2825C59.1756 58.7088 58.204 60.681 56.8069 61.8749C55.9368 62.6193 55.381 61.6719 54.97 60.1203C54.0952 56.8234 53.868 50.7864 52.6257 52.4923C49.0342 57.4376 52.4565 63.992 53.491 66.5203C53.7036 67.0377 53.9211 67.5353 54.1386 68.0092V68.0139C54.2643 68.2844 54.3948 68.5554 54.5205 68.8117V68.8164C57.9718 75.8542 62.1193 78.3726 65.7737 82.7571C67.2093 84.473 68.5676 86.4693 69.7809 89.1378C70.6123 90.9651 71.2117 92.8019 71.6226 94.6046C73.7156 103.644 71.2311 111.857 70.5591 114.09C69.1525 118.74 66.7356 126.73 59.6444 131.24C50.7404 136.906 42.6149 131.912 38.7284 137.292C38.6801 137.355 38.6365 137.418 38.5931 137.481C38.4481 137.698 38.3175 137.916 38.2064 138.133C34.7164 136.867 31.2843 135.383 27.9829 133.706C27.5381 133.483 27.0934 133.256 26.6487 133.014C26.1557 132.763 25.6675 132.497 25.1744 132.222C25.155 131.844 25.1357 131.468 25.1212 131.086C24.8361 124.546 25.2662 117.358 26.8953 110.189C27.9393 105.611 28.9738 101.072 30.5592 96.6977C31.5937 93.846 32.8601 91.0614 34.5278 88.3787C35.862 86.2229 37.4474 84.1298 39.3713 82.1188C43.5961 77.7056 47.352 75.8641 47.9466 71.204C48.7972 64.5528 41.8704 62.5518 39.3713 52.4923C37.665 45.614 35.8813 35.7 37.6118 29.0195C39.2457 22.7067 40.6668 17.23 45.4088 11.8641C46.5495 10.5783 55.9127 1.63568 66.7598 0.166179C71.7579 -0.505552 76.2148 5.89455 82.2571 7.272C89.2032 8.8529 93.1814 9.75688 97.0678 12.7294C103.637 17.7469 105.488 25.2492 107.204 32.2195C108.548 37.6722 110.288 44.7247 107.983 53.2708Z" fill="#2F2E41"/>
</svg>
